<svg xmlns="http://www.w3.org/2000/svg" xml:space="preserve" width="360" height="360" viewBox="0 0 360 360">
	<path fill="#0f172a" d="M0 0h360v360H0z"/>
	<defs transform="translate(16 16)">
		<linearGradient id="a" gradientTransform="rotate(90)">
			<stop offset="5%" stop-color="#fff"/>
			<stop offset="95%" stop-color="#38bdf8"/>
		</linearGradient>
		<mask id="b">
			<path fill="#fff" d="M71.52.616h-4.136a3.384 3.384 0 1 0 0 6.768H72V.616zM76.616.616H72v6.768h4.616a3.384 3.384 0 0 0 0-6.768M95.52.616h-4.136a3.384 3.384 0 1 0 0 6.768H96V.616zM100.616.616H96v6.768h4.616a3.384 3.384 0 0 0 0-6.768M119.52.616h-4.136a3.384 3.384 0 1 0 0 6.768H120V.616zM124.616.616H120v6.768h4.616a3.384 3.384 0 0 0 0-6.768M151.52.616h-4.136a3.384 3.384 0 1 0 0 6.768H152V.616zM156 .616h-4v6.768h8V.616zM164.616.616H160v6.768h4.616a3.384 3.384 0 0 0 0-6.768M180 .616a3.384 3.384 0 1 1 0 6.768 3.384 3.384 0 0 1 0-6.768M196 .616a3.384 3.384 0 1 1 0 6.768 3.384 3.384 0 0 1 0-6.768M212 .616a3.384 3.384 0 1 1 0 6.768 3.384 3.384 0 0 1 0-6.768M236 .616a3.384 3.384 0 1 1 0 6.768 3.384 3.384 0 0 1 0-6.768M255.52.616h-4.136a3.384 3.384 0 1 0 0 6.768H256V.616zM260.616.616H256v6.768h4.616a3.384 3.384 0 0 0 0-6.768M71.52 8.616h-4.136a3.384 3.384 0 1 0 0 6.768H72V8.616zM76.616 8.616H72v6.768h4.616a3.384 3.384 0 0 0 0-6.768M95.52 8.616h-4.136a3.384 3.384 0 1 0 0 6.768H96V8.616zM100 8.616h-4v6.768h8V8.616zM108 8.616h-4v6.768h8V8.616zM116.616 8.616H112v6.768h4.616a3.384 3.384 0 0 0 0-6.768M151.52 8.616h-4.136a3.384 3.384 0 1 0 0 6.768H152V8.616zM156.616 8.616H152v6.768h4.616a3.384 3.384 0 0 0 0-6.768M196 8.616a3.384 3.384 0 1 1 0 6.768 3.384 3.384 0 0 1 0-6.768M223.52 8.616h-4.136a3.384 3.384 0 1 0 0 6.768H224V8.616zM228 8.616h-4v6.768h8V8.616zM236.616 8.616H232v6.768h4.616a3.384 3.384 0 0 0 0-6.768M68 16.616a3.384 3.384 0 1 1 0 6.768 3.384 3.384 0 0 1 0-6.768M84 16.616a3.384 3.384 0 1 1 0 6.768 3.384 3.384 0 0 1 0-6.768M100 16.616a3.384 3.384 0 1 1 0 6.768 3.384 3.384 0 0 1 0-6.768M116 16.616a3.384 3.384 0 1 1 0 6.768 3.384 3.384 0 0 1 0-6.768M159.52 16.616h-4.136a3.384 3.384 0 1 0 0 6.768H160v-6.768zM164.616 16.616H160v6.768h4.616a3.384 3.384 0 0 0 0-6.768M191.52 16.616h-4.136a3.384 3.384 0 1 0 0 6.768H192v-6.768zM196.616 16.616H192v6.768h4.616a3.384 3.384 0 0 0 0-6.768M215.52 16.616h-4.136a3.384 3.384 0 1 0 0 6.768H216v-6.768zM220 16.616h-4v6.768h8v-6.768zM228 16.616h-4v6.768h8v-6.768zM236 16.616h-4v6.768h8v-6.768zM244 16.616h-4v6.768h8v-6.768zM252.616 16.616H248v6.768h4.616a3.384 3.384 0 0 0 0-6.768M76 24.616a3.384 3.384 0 1 1 0 6.768 3.384 3.384 0 0 1 0-6.768M108 24.616a3.384 3.384 0 1 1 0 6.768 3.384 3.384 0 0 1 0-6.768M140 24.616a3.384 3.384 0 1 1 0 6.768 3.384 3.384 0 0 1 0-6.768M164 24.616a3.384 3.384 0 1 1 0 6.768 3.384 3.384 0 0 1 0-6.768M188 24.616a3.384 3.384 0 1 1 0 6.768 3.384 3.384 0 0 1 0-6.768M76 32.616a3.384 3.384 0 1 1 0 6.768 3.384 3.384 0 0 1 0-6.768M108 32.616a3.384 3.384 0 1 1 0 6.768 3.384 3.384 0 0 1 0-6.768M127.52 32.616h-4.136a3.384 3.384 0 1 0 0 6.768H128v-6.768zM132 32.616h-4v6.768h8v-6.768zM140 32.616h-4v6.768h8v-6.768zM148.616 32.616H144v6.768h4.616a3.384 3.384 0 0 0 0-6.768M183.52 32.616h-4.136a3.384 3.384 0 1 0 0 6.768H184v-6.768zM188.616 32.616H184v6.768h4.616a3.384 3.384 0 0 0 0-6.768M207.52 32.616h-4.136a3.384 3.384 0 1 0 0 6.768H208v-6.768zM212.616 32.616H208v6.768h4.616a3.384 3.384 0 0 0 0-6.768M228 32.616a3.384 3.384 0 1 1 0 6.768 3.384 3.384 0 0 1 0-6.768M247.52 32.616h-4.136a3.384 3.384 0 1 0 0 6.768H248v-6.768zM252.616 32.616H248v6.768h4.616a3.384 3.384 0 0 0 0-6.768M68 40.616a3.384 3.384 0 1 1 0 6.768 3.384 3.384 0 0 1 0-6.768M95.52 40.616h-4.136a3.384 3.384 0 1 0 0 6.768H96v-6.768zM100 40.616h-4v6.768h8v-6.768zM108.616 40.616H104v6.768h4.616a3.384 3.384 0 0 0 0-6.768M124 40.616a3.384 3.384 0 1 1 0 6.768 3.384 3.384 0 0 1 0-6.768M143.52 40.616h-4.136a3.384 3.384 0 1 0 0 6.768H144v-6.768zM148.616 40.616H144v6.768h4.616a3.384 3.384 0 0 0 0-6.768M175.52 40.616h-4.136a3.384 3.384 0 1 0 0 6.768H176v-6.768zM180.616 40.616H176v6.768h4.616a3.384 3.384 0 0 0 0-6.768M196 40.616a3.384 3.384 0 1 1 0 6.768 3.384 3.384 0 0 1 0-6.768M223.52 40.616h-4.136a3.384 3.384 0 1 0 0 6.768H224v-6.768zM228 40.616h-4v6.768h8v-6.768zM236.616 40.616H232v6.768h4.616a3.384 3.384 0 0 0 0-6.768M260 40.616a3.384 3.384 0 1 1 0 6.768 3.384 3.384 0 0 1 0-6.768M68 48.616a3.384 3.384 0 1 1 0 6.768 3.384 3.384 0 0 1 0-6.768M84 48.616a3.384 3.384 0 1 1 0 6.768 3.384 3.384 0 0 1 0-6.768M100 48.616a3.384 3.384 0 1 1 0 6.768 3.384 3.384 0 0 1 0-6.768M116 48.616a3.384 3.384 0 1 1 0 6.768 3.384 3.384 0 0 1 0-6.768M132 48.616a3.384 3.384 0 1 1 0 6.768 3.384 3.384 0 0 1 0-6.768M148 48.616a3.384 3.384 0 1 1 0 6.768 3.384 3.384 0 0 1 0-6.768M164 48.616a3.384 3.384 0 1 1 0 6.768 3.384 3.384 0 0 1 0-6.768M180 48.616a3.384 3.384 0 1 1 0 6.768 3.384 3.384 0 0 1 0-6.768M196 48.616a3.384 3.384 0 1 1 0 6.768 3.384 3.384 0 0 1 0-6.768M212 48.616a3.384 3.384 0 1 1 0 6.768 3.384 3.384 0 0 1 0-6.768M228 48.616a3.384 3.384 0 1 1 0 6.768 3.384 3.384 0 0 1 0-6.768M244 48.616a3.384 3.384 0 1 1 0 6.768 3.384 3.384 0 0 1 0-6.768M260 48.616a3.384 3.384 0 1 1 0 6.768 3.384 3.384 0 0 1 0-6.768M68 56.616a3.384 3.384 0 1 1 0 6.768 3.384 3.384 0 0 1 0-6.768M84 56.616a3.384 3.384 0 1 1 0 6.768 3.384 3.384 0 0 1 0-6.768M100 56.616a3.384 3.384 0 1 1 0 6.768 3.384 3.384 0 0 1 0-6.768M116 56.616a3.384 3.384 0 1 1 0 6.768 3.384 3.384 0 0 1 0-6.768M196 56.616a3.384 3.384 0 1 1 0 6.768 3.384 3.384 0 0 1 0-6.768M260 56.616a3.384 3.384 0 1 1 0 6.768 3.384 3.384 0 0 1 0-6.768M23.52 64.616h-4.136a3.384 3.384 0 1 0 0 6.768H24v-6.768zM28 64.616h-4v6.768h8v-6.768zM36.616 64.616H32v6.768h4.616a3.384 3.384 0 0 0 0-6.768M52 64.616a3.384 3.384 0 1 1 0 6.768 3.384 3.384 0 0 1 0-6.768M71.52 64.616h-4.136a3.384 3.384 0 1 0 0 6.768H72v-6.768zM76.616 64.616H72v6.768h4.616a3.384 3.384 0 0 0 0-6.768M95.52 64.616h-4.136a3.384 3.384 0 1 0 0 6.768H96v-6.768zM100.616 64.616H96v6.768h4.616a3.384 3.384 0 0 0 0-6.768M119.52 64.616h-4.136a3.384 3.384 0 1 0 0 6.768H120v-6.768zM124.616 64.616H120v6.768h4.616a3.384 3.384 0 0 0 0-6.768M156 64.616a3.384 3.384 0 1 1 0 6.768 3.384 3.384 0 0 1 0-6.768M191.52 64.616h-4.136a3.384 3.384 0 1 0 0 6.768H192v-6.768zM196.616 64.616H192v6.768h4.616a3.384 3.384 0 0 0 0-6.768M212 64.616a3.384 3.384 0 1 1 0 6.768 3.384 3.384 0 0 1 0-6.768M236 64.616a3.384 3.384 0 1 1 0 6.768 3.384 3.384 0 0 1 0-6.768M255.52 64.616h-4.136a3.384 3.384 0 1 0 0 6.768H256v-6.768zM260 64.616h-4v6.768h8v-6.768zM268 64.616h-4v6.768h8v-6.768zM276 64.616h-4v6.768h8v-6.768zM284.616 64.616H280v6.768h4.616a3.384 3.384 0 0 0 0-6.768M311.52 64.616h-4.136a3.384 3.384 0 1 0 0 6.768H312v-6.768zM316 64.616h-4v6.768h8v-6.768zM324.616 64.616H320v6.768h4.616a3.384 3.384 0 0 0 0-6.768M7.52 72.616H3.384a3.384 3.384 0 1 0 0 6.768H8v-6.768zM12.616 72.616H8v6.768h4.616a3.384 3.384 0 0 0 0-6.768M63.52 72.616h-4.136a3.384 3.384 0 1 0 0 6.768H64v-6.768zM68 72.616h-4v6.768h8v-6.768zM76 72.616h-4v6.768h8v-6.768zM84 72.616h-4v6.768h8v-6.768zM92 72.616h-4v6.768h8v-6.768zM100.616 72.616H96v6.768h4.616a3.384 3.384 0 0 0 0-6.768M148 72.616a3.384 3.384 0 1 1 0 6.768 3.384 3.384 0 0 1 0-6.768M175.52 72.616h-4.136a3.384 3.384 0 1 0 0 6.768H176v-6.768zM180.616 72.616H176v6.768h4.616a3.384 3.384 0 0 0 0-6.768M231.52 72.616h-4.136a3.384 3.384 0 1 0 0 6.768H232v-6.768zM236.616 72.616H232v6.768h4.616a3.384 3.384 0 0 0 0-6.768M255.52 72.616h-4.136a3.384 3.384 0 1 0 0 6.768H256v-6.768zM260 72.616h-4v6.768h8v-6.768zM268 72.616h-4v6.768h8v-6.768zM276 72.616h-4v6.768h8v-6.768zM284 72.616h-4v6.768h8v-6.768zM292.616 72.616H288v6.768h4.616a3.384 3.384 0 0 0 0-6.768M308 72.616a3.384 3.384 0 1 1 0 6.768 3.384 3.384 0 0 1 0-6.768M324 72.616a3.384 3.384 0 1 1 0 6.768 3.384 3.384 0 0 1 0-6.768M4 80.616a3.384 3.384 0 1 1 0 6.768 3.384 3.384 0 0 1 0-6.768M39.52 80.616h-4.136a3.384 3.384 0 1 0 0 6.768H40v-6.768zM44 80.616h-4v6.768h8v-6.768zM52.616 80.616H48v6.768h4.616a3.384 3.384 0 0 0 0-6.768M79.52 80.616h-4.136a3.384 3.384 0 1 0 0 6.768H80v-6.768zM84.616 80.616H80v6.768h4.616a3.384 3.384 0 0 0 0-6.768M108 80.616a3.384 3.384 0 1 1 0 6.768 3.384 3.384 0 0 1 0-6.768M124 80.616a3.384 3.384 0 1 1 0 6.768 3.384 3.384 0 0 1 0-6.768M148 80.616a3.384 3.384 0 1 1 0 6.768 3.384 3.384 0 0 1 0-6.768M172 80.616a3.384 3.384 0 1 1 0 6.768 3.384 3.384 0 0 1 0-6.768M196 80.616a3.384 3.384 0 1 1 0 6.768 3.384 3.384 0 0 1 0-6.768M223.52 80.616h-4.136a3.384 3.384 0 1 0 0 6.768H224v-6.768zM228 80.616h-4v6.768h8v-6.768zM236.616 80.616H232v6.768h4.616a3.384 3.384 0 0 0 0-6.768M263.52 80.616h-4.136a3.384 3.384 0 1 0 0 6.768H264v-6.768zM268 80.616h-4v6.768h8v-6.768zM276.616 80.616H272v6.768h4.616a3.384 3.384 0 0 0 0-6.768M316 80.616a3.384 3.384 0 1 1 0 6.768 3.384 3.384 0 0 1 0-6.768M7.52 88.616H3.384a3.384 3.384 0 1 0 0 6.768H8v-6.768zM12.616 88.616H8v6.768h4.616a3.384 3.384 0 0 0 0-6.768M44 88.616a3.384 3.384 0 1 1 0 6.768 3.384 3.384 0 0 1 0-6.768M60 88.616a3.384 3.384 0 1 1 0 6.768 3.384 3.384 0 0 1 0-6.768M79.52 88.616h-4.136a3.384 3.384 0 1 0 0 6.768H80v-6.768zM84 88.616h-4v6.768h8v-6.768zM92 88.616h-4v6.768h8v-6.768zM100 88.616h-4v6.768h8v-6.768zM108 88.616h-4v6.768h8v-6.768zM116 88.616h-4v6.768h8v-6.768zM124.616 88.616H120v6.768h4.616a3.384 3.384 0 0 0 0-6.768M172 88.616a3.384 3.384 0 1 1 0 6.768 3.384 3.384 0 0 1 0-6.768M199.52 88.616h-4.136a3.384 3.384 0 1 0 0 6.768H200v-6.768zM204 88.616h-4v6.768h8v-6.768zM212 88.616h-4v6.768h8v-6.768zM220.616 88.616H216v6.768h4.616a3.384 3.384 0 0 0 0-6.768M255.52 88.616h-4.136a3.384 3.384 0 1 0 0 6.768H256v-6.768zM260 88.616h-4v6.768h8v-6.768zM268.616 88.616H264v6.768h4.616a3.384 3.384 0 0 0 0-6.768M295.52 88.616h-4.136a3.384 3.384 0 1 0 0 6.768H296v-6.768zM300.616 88.616H296v6.768h4.616a3.384 3.384 0 0 0 0-6.768M319.52 88.616h-4.136a3.384 3.384 0 1 0 0 6.768H320v-6.768zM324.616 88.616H320v6.768h4.616a3.384 3.384 0 0 0 0-6.768M20 96.616a3.384 3.384 0 1 1 0 6.768 3.384 3.384 0 0 1 0-6.768M47.52 96.616h-4.136a3.384 3.384 0 1 0 0 6.768H48v-6.768zM52.616 96.616H48v6.768h4.616a3.384 3.384 0 0 0 0-6.768M76 96.616a3.384 3.384 0 1 1 0 6.768 3.384 3.384 0 0 1 0-6.768M108 96.616a3.384 3.384 0 1 1 0 6.768 3.384 3.384 0 0 1 0-6.768M127.52 96.616h-4.136a3.384 3.384 0 1 0 0 6.768H128v-6.768zM132 96.616h-4v6.768h8v-6.768zM140.616 96.616H136v6.768h4.616a3.384 3.384 0 0 0 0-6.768M183.52 96.616h-4.136a3.384 3.384 0 1 0 0 6.768H184v-6.768zM188 96.616h-4v6.768h8v-6.768zM196.616 96.616H192v6.768h4.616a3.384 3.384 0 0 0 0-6.768M236 96.616a3.384 3.384 0 1 1 0 6.768 3.384 3.384 0 0 1 0-6.768M268 96.616a3.384 3.384 0 1 1 0 6.768 3.384 3.384 0 0 1 0-6.768M303.52 96.616h-4.136a3.384 3.384 0 1 0 0 6.768H304v-6.768zM308 96.616h-4v6.768h8v-6.768zM316.616 96.616H312v6.768h4.616a3.384 3.384 0 0 0 0-6.768M39.52 104.616h-4.136a3.384 3.384 0 1 0 0 6.768H40v-6.768zM44.616 104.616H40v6.768h4.616a3.384 3.384 0 0 0 0-6.768M63.52 104.616h-4.136a3.384 3.384 0 1 0 0 6.768H64v-6.768zM68 104.616h-4v6.768h8v-6.768zM76 104.616h-4v6.768h8v-6.768zM84 104.616h-4v6.768h8v-6.768zM92.616 104.616H88v6.768h4.616a3.384 3.384 0 0 0 0-6.768M119.52 104.616h-4.136a3.384 3.384 0 1 0 0 6.768H120v-6.768zM124.616 104.616H120v6.768h4.616a3.384 3.384 0 0 0 0-6.768M180 104.616a3.384 3.384 0 1 1 0 6.768 3.384 3.384 0 0 1 0-6.768M207.52 104.616h-4.136a3.384 3.384 0 1 0 0 6.768H208v-6.768zM212 104.616h-4v6.768h8v-6.768zM220 104.616h-4v6.768h8v-6.768zM228.616 104.616H224v6.768h4.616a3.384 3.384 0 0 0 0-6.768M244 104.616a3.384 3.384 0 1 1 0 6.768 3.384 3.384 0 0 1 0-6.768M276 104.616a3.384 3.384 0 1 1 0 6.768 3.384 3.384 0 0 1 0-6.768M295.52 104.616h-4.136a3.384 3.384 0 1 0 0 6.768H296v-6.768zM300.616 104.616H296v6.768h4.616a3.384 3.384 0 0 0 0-6.768M319.52 104.616h-4.136a3.384 3.384 0 1 0 0 6.768H320v-6.768zM324.616 104.616H320v6.768h4.616a3.384 3.384 0 0 0 0-6.768M23.52 112.616h-4.136a3.384 3.384 0 1 0 0 6.768H24v-6.768zM28 112.616h-4v6.768h8v-6.768zM36 112.616h-4v6.768h8v-6.768zM44 112.616h-4v6.768h8v-6.768zM52.616 112.616H48v6.768h4.616a3.384 3.384 0 0 0 0-6.768M76 112.616a3.384 3.384 0 1 1 0 6.768 3.384 3.384 0 0 1 0-6.768M95.52 112.616h-4.136a3.384 3.384 0 1 0 0 6.768H96v-6.768zM100 112.616h-4v6.768h8v-6.768zM108.616 112.616H104v6.768h4.616a3.384 3.384 0 0 0 0-6.768M143.52 112.616h-4.136a3.384 3.384 0 1 0 0 6.768H144v-6.768zM148.616 112.616H144v6.768h4.616a3.384 3.384 0 0 0 0-6.768M164 112.616a3.384 3.384 0 1 1 0 6.768 3.384 3.384 0 0 1 0-6.768M180 112.616a3.384 3.384 0 1 1 0 6.768 3.384 3.384 0 0 1 0-6.768M199.52 112.616h-4.136a3.384 3.384 0 1 0 0 6.768H200v-6.768zM204 112.616h-4v6.768h8v-6.768zM212.616 112.616H208v6.768h4.616a3.384 3.384 0 0 0 0-6.768M271.52 112.616h-4.136a3.384 3.384 0 1 0 0 6.768H272v-6.768zM276.616 112.616H272v6.768h4.616a3.384 3.384 0 0 0 0-6.768M300 112.616a3.384 3.384 0 1 1 0 6.768 3.384 3.384 0 0 1 0-6.768M316 112.616a3.384 3.384 0 1 1 0 6.768 3.384 3.384 0 0 1 0-6.768M39.52 120.616h-4.136a3.384 3.384 0 1 0 0 6.768H40v-6.768zM44.616 120.616H40v6.768h4.616a3.384 3.384 0 0 0 0-6.768M60 120.616a3.384 3.384 0 1 1 0 6.768 3.384 3.384 0 0 1 0-6.768M79.52 120.616h-4.136a3.384 3.384 0 1 0 0 6.768H80v-6.768zM84 120.616h-4v6.768h8v-6.768zM92 120.616h-4v6.768h8v-6.768zM100.616 120.616H96v6.768h4.616a3.384 3.384 0 0 0 0-6.768M116 120.616a3.384 3.384 0 1 1 0 6.768 3.384 3.384 0 0 1 0-6.768M135.52 120.616h-4.136a3.384 3.384 0 1 0 0 6.768H136v-6.768zM140 120.616h-4v6.768h8v-6.768zM148.616 120.616H144v6.768h4.616a3.384 3.384 0 0 0 0-6.768M191.52 120.616h-4.136a3.384 3.384 0 1 0 0 6.768H192v-6.768zM196 120.616h-4v6.768h8v-6.768zM204.616 120.616H200v6.768h4.616a3.384 3.384 0 0 0 0-6.768M228 120.616a3.384 3.384 0 1 1 0 6.768 3.384 3.384 0 0 1 0-6.768M255.52 120.616h-4.136a3.384 3.384 0 1 0 0 6.768H256v-6.768zM260 120.616h-4v6.768h8v-6.768zM268 120.616h-4v6.768h8v-6.768zM276 120.616h-4v6.768h8v-6.768zM284.616 120.616H280v6.768h4.616a3.384 3.384 0 0 0 0-6.768M300 120.616a3.384 3.384 0 1 1 0 6.768 3.384 3.384 0 0 1 0-6.768M4 128.616a3.384 3.384 0 1 1 0 6.768 3.384 3.384 0 0 1 0-6.768M52 128.616a3.384 3.384 0 1 1 0 6.768 3.384 3.384 0 0 1 0-6.768M71.52 128.616h-4.136a3.384 3.384 0 1 0 0 6.768H72v-6.768zM76 128.616h-4v6.768h8v-6.768zM84 128.616h-4v6.768h8v-6.768zM92.616 128.616H88v6.768h4.616a3.384 3.384 0 0 0 0-6.768M111.52 128.616h-4.136a3.384 3.384 0 1 0 0 6.768H112v-6.768zM116.616 128.616H112v6.768h4.616a3.384 3.384 0 0 0 0-6.768M132 128.616a3.384 3.384 0 1 1 0 6.768 3.384 3.384 0 0 1 0-6.768M151.52 128.616h-4.136a3.384 3.384 0 1 0 0 6.768H152v-6.768zM156 128.616h-4v6.768h8v-6.768zM164 128.616h-4v6.768h8v-6.768zM172 128.616h-4v6.768h8v-6.768zM180.616 128.616H176v6.768h4.616a3.384 3.384 0 0 0 0-6.768M196 128.616a3.384 3.384 0 1 1 0 6.768 3.384 3.384 0 0 1 0-6.768M236 128.616a3.384 3.384 0 1 1 0 6.768 3.384 3.384 0 0 1 0-6.768M268 128.616a3.384 3.384 0 1 1 0 6.768 3.384 3.384 0 0 1 0-6.768M284 128.616a3.384 3.384 0 1 1 0 6.768 3.384 3.384 0 0 1 0-6.768M311.52 128.616h-4.136a3.384 3.384 0 1 0 0 6.768H312v-6.768zM316 128.616h-4v6.768h8v-6.768zM324.616 128.616H320v6.768h4.616a3.384 3.384 0 0 0 0-6.768M15.52 136.616h-4.136a3.384 3.384 0 1 0 0 6.768H16v-6.768zM20 136.616h-4v6.768h8v-6.768zM28 136.616h-4v6.768h8v-6.768zM36.616 136.616H32v6.768h4.616a3.384 3.384 0 0 0 0-6.768M63.52 136.616h-4.136a3.384 3.384 0 1 0 0 6.768H64v-6.768zM68.616 136.616H64v6.768h4.616a3.384 3.384 0 0 0 0-6.768M103.52 136.616h-4.136a3.384 3.384 0 1 0 0 6.768H104v-6.768zM108 136.616h-4v6.768h8v-6.768zM116.616 136.616H112v6.768h4.616a3.384 3.384 0 0 0 0-6.768M132 136.616a3.384 3.384 0 1 1 0 6.768 3.384 3.384 0 0 1 0-6.768M148 136.616a3.384 3.384 0 1 1 0 6.768 3.384 3.384 0 0 1 0-6.768M167.52 136.616h-4.136a3.384 3.384 0 1 0 0 6.768H168v-6.768zM172.616 136.616H168v6.768h4.616a3.384 3.384 0 0 0 0-6.768M191.52 136.616h-4.136a3.384 3.384 0 1 0 0 6.768H192v-6.768zM196.616 136.616H192v6.768h4.616a3.384 3.384 0 0 0 0-6.768M212 136.616a3.384 3.384 0 1 1 0 6.768 3.384 3.384 0 0 1 0-6.768M255.52 136.616h-4.136a3.384 3.384 0 1 0 0 6.768H256v-6.768zM260 136.616h-4v6.768h8v-6.768zM268 136.616h-4v6.768h8v-6.768zM276.616 136.616H272v6.768h4.616a3.384 3.384 0 0 0 0-6.768M295.52 136.616h-4.136a3.384 3.384 0 1 0 0 6.768H296v-6.768zM300 136.616h-4v6.768h8v-6.768zM308 136.616h-4v6.768h8v-6.768zM316 136.616h-4v6.768h8v-6.768zM324.616 136.616H320v6.768h4.616a3.384 3.384 0 0 0 0-6.768M4 144.616a3.384 3.384 0 1 1 0 6.768 3.384 3.384 0 0 1 0-6.768M28 144.616a3.384 3.384 0 1 1 0 6.768 3.384 3.384 0 0 1 0-6.768M47.52 144.616h-4.136a3.384 3.384 0 1 0 0 6.768H48v-6.768zM52.616 144.616H48v6.768h4.616a3.384 3.384 0 0 0 0-6.768M111.52 144.616h-4.136a3.384 3.384 0 1 0 0 6.768H112v-6.768zM116.616 144.616H112v6.768h4.616a3.384 3.384 0 0 0 0-6.768M140 144.616a3.384 3.384 0 1 1 0 6.768 3.384 3.384 0 0 1 0-6.768M159.52 144.616h-4.136a3.384 3.384 0 1 0 0 6.768H160v-6.768zM164 144.616h-4v6.768h8v-6.768zM172.616 144.616H168v6.768h4.616a3.384 3.384 0 0 0 0-6.768M188 144.616a3.384 3.384 0 1 1 0 6.768 3.384 3.384 0 0 1 0-6.768M207.52 144.616h-4.136a3.384 3.384 0 1 0 0 6.768H208v-6.768zM212 144.616h-4v6.768h8v-6.768zM220.616 144.616H216v6.768h4.616a3.384 3.384 0 0 0 0-6.768M244 144.616a3.384 3.384 0 1 1 0 6.768 3.384 3.384 0 0 1 0-6.768M276 144.616a3.384 3.384 0 1 1 0 6.768 3.384 3.384 0 0 1 0-6.768M295.52 144.616h-4.136a3.384 3.384 0 1 0 0 6.768H296v-6.768zM300.616 144.616H296v6.768h4.616a3.384 3.384 0 0 0 0-6.768M4 152.616a3.384 3.384 0 1 1 0 6.768 3.384 3.384 0 0 1 0-6.768M28 152.616a3.384 3.384 0 1 1 0 6.768 3.384 3.384 0 0 1 0-6.768M44 152.616a3.384 3.384 0 1 1 0 6.768 3.384 3.384 0 0 1 0-6.768M63.52 152.616h-4.136a3.384 3.384 0 1 0 0 6.768H64v-6.768zM68.616 152.616H64v6.768h4.616a3.384 3.384 0 0 0 0-6.768M100 152.616a3.384 3.384 0 1 1 0 6.768 3.384 3.384 0 0 1 0-6.768M116 152.616a3.384 3.384 0 1 1 0 6.768 3.384 3.384 0 0 1 0-6.768M167.52 152.616h-4.136a3.384 3.384 0 1 0 0 6.768H168v-6.768zM172 152.616h-4v6.768h8v-6.768zM180.616 152.616H176v6.768h4.616a3.384 3.384 0 0 0 0-6.768M220 152.616a3.384 3.384 0 1 1 0 6.768 3.384 3.384 0 0 1 0-6.768M255.52 152.616h-4.136a3.384 3.384 0 1 0 0 6.768H256v-6.768zM260 152.616h-4v6.768h8v-6.768zM268 152.616h-4v6.768h8v-6.768zM276.616 152.616H272v6.768h4.616a3.384 3.384 0 0 0 0-6.768M295.52 152.616h-4.136a3.384 3.384 0 1 0 0 6.768H296v-6.768zM300.616 152.616H296v6.768h4.616a3.384 3.384 0 0 0 0-6.768M324 152.616a3.384 3.384 0 1 1 0 6.768 3.384 3.384 0 0 1 0-6.768M12 160.616a3.384 3.384 0 1 1 0 6.768 3.384 3.384 0 0 1 0-6.768M39.52 160.616h-4.136a3.384 3.384 0 1 0 0 6.768H40v-6.768zM44 160.616h-4v6.768h8v-6.768zM52 160.616h-4v6.768h8v-6.768zM60 160.616h-4v6.768h8v-6.768zM68.616 160.616H64v6.768h4.616a3.384 3.384 0 0 0 0-6.768M87.52 160.616h-4.136a3.384 3.384 0 1 0 0 6.768H88v-6.768zM92.616 160.616H88v6.768h4.616a3.384 3.384 0 0 0 0-6.768M124 160.616a3.384 3.384 0 1 1 0 6.768 3.384 3.384 0 0 1 0-6.768M191.52 160.616h-4.136a3.384 3.384 0 1 0 0 6.768H192v-6.768zM196.616 160.616H192v6.768h4.616a3.384 3.384 0 0 0 0-6.768M212 160.616a3.384 3.384 0 1 1 0 6.768 3.384 3.384 0 0 1 0-6.768M247.52 160.616h-4.136a3.384 3.384 0 1 0 0 6.768H248v-6.768zM252.616 160.616H248v6.768h4.616a3.384 3.384 0 0 0 0-6.768M284 160.616a3.384 3.384 0 1 1 0 6.768 3.384 3.384 0 0 1 0-6.768M311.52 160.616h-4.136a3.384 3.384 0 1 0 0 6.768H312v-6.768zM316 160.616h-4v6.768h8v-6.768zM324.616 160.616H320v6.768h4.616a3.384 3.384 0 0 0 0-6.768M12 168.616a3.384 3.384 0 1 1 0 6.768 3.384 3.384 0 0 1 0-6.768M39.52 168.616h-4.136a3.384 3.384 0 1 0 0 6.768H40v-6.768zM44.616 168.616H40v6.768h4.616a3.384 3.384 0 0 0 0-6.768M60 168.616a3.384 3.384 0 1 1 0 6.768 3.384 3.384 0 0 1 0-6.768M92 168.616a3.384 3.384 0 1 1 0 6.768 3.384 3.384 0 0 1 0-6.768M108 168.616a3.384 3.384 0 1 1 0 6.768 3.384 3.384 0 0 1 0-6.768M124 168.616a3.384 3.384 0 1 1 0 6.768 3.384 3.384 0 0 1 0-6.768M140 168.616a3.384 3.384 0 1 1 0 6.768 3.384 3.384 0 0 1 0-6.768M156 168.616a3.384 3.384 0 1 1 0 6.768 3.384 3.384 0 0 1 0-6.768M175.52 168.616h-4.136a3.384 3.384 0 1 0 0 6.768H176v-6.768zM180 168.616h-4v6.768h8v-6.768zM188 168.616h-4v6.768h8v-6.768zM196 168.616h-4v6.768h8v-6.768zM204 168.616h-4v6.768h8v-6.768zM212.616 168.616H208v6.768h4.616a3.384 3.384 0 0 0 0-6.768M228 168.616a3.384 3.384 0 1 1 0 6.768 3.384 3.384 0 0 1 0-6.768M255.52 168.616h-4.136a3.384 3.384 0 1 0 0 6.768H256v-6.768zM260 168.616h-4v6.768h8v-6.768zM268 168.616h-4v6.768h8v-6.768zM276.616 168.616H272v6.768h4.616a3.384 3.384 0 0 0 0-6.768M292 168.616a3.384 3.384 0 1 1 0 6.768 3.384 3.384 0 0 1 0-6.768M311.52 168.616h-4.136a3.384 3.384 0 1 0 0 6.768H312v-6.768zM316 168.616h-4v6.768h8v-6.768zM324.616 168.616H320v6.768h4.616a3.384 3.384 0 0 0 0-6.768M12 176.616a3.384 3.384 0 1 1 0 6.768 3.384 3.384 0 0 1 0-6.768M28 176.616a3.384 3.384 0 1 1 0 6.768 3.384 3.384 0 0 1 0-6.768M52 176.616a3.384 3.384 0 1 1 0 6.768 3.384 3.384 0 0 1 0-6.768M92 176.616a3.384 3.384 0 1 1 0 6.768 3.384 3.384 0 0 1 0-6.768M108 176.616a3.384 3.384 0 1 1 0 6.768 3.384 3.384 0 0 1 0-6.768M135.52 176.616h-4.136a3.384 3.384 0 1 0 0 6.768H136v-6.768zM140 176.616h-4v6.768h8v-6.768zM148 176.616h-4v6.768h8v-6.768zM156.616 176.616H152v6.768h4.616a3.384 3.384 0 0 0 0-6.768M207.52 176.616h-4.136a3.384 3.384 0 1 0 0 6.768H208v-6.768zM212 176.616h-4v6.768h8v-6.768zM220 176.616h-4v6.768h8v-6.768zM228 176.616h-4v6.768h8v-6.768zM236.616 176.616H232v6.768h4.616a3.384 3.384 0 0 0 0-6.768M263.52 176.616h-4.136a3.384 3.384 0 1 0 0 6.768H264v-6.768zM268 176.616h-4v6.768h8v-6.768zM276.616 176.616H272v6.768h4.616a3.384 3.384 0 0 0 0-6.768M300 176.616a3.384 3.384 0 1 1 0 6.768 3.384 3.384 0 0 1 0-6.768M12 184.616a3.384 3.384 0 1 1 0 6.768 3.384 3.384 0 0 1 0-6.768M39.52 184.616h-4.136a3.384 3.384 0 1 0 0 6.768H40v-6.768zM44.616 184.616H40v6.768h4.616a3.384 3.384 0 0 0 0-6.768M60 184.616a3.384 3.384 0 1 1 0 6.768 3.384 3.384 0 0 1 0-6.768M84 184.616a3.384 3.384 0 1 1 0 6.768 3.384 3.384 0 0 1 0-6.768M111.52 184.616h-4.136a3.384 3.384 0 1 0 0 6.768H112v-6.768zM116 184.616h-4v6.768h8v-6.768zM124 184.616h-4v6.768h8v-6.768zM132.616 184.616H128v6.768h4.616a3.384 3.384 0 0 0 0-6.768M175.52 184.616h-4.136a3.384 3.384 0 1 0 0 6.768H176v-6.768zM180 184.616h-4v6.768h8v-6.768zM188 184.616h-4v6.768h8v-6.768zM196 184.616h-4v6.768h8v-6.768zM204 184.616h-4v6.768h8v-6.768zM212.616 184.616H208v6.768h4.616a3.384 3.384 0 0 0 0-6.768M228 184.616a3.384 3.384 0 1 1 0 6.768 3.384 3.384 0 0 1 0-6.768M255.52 184.616h-4.136a3.384 3.384 0 1 0 0 6.768H256v-6.768zM260.616 184.616H256v6.768h4.616a3.384 3.384 0 0 0 0-6.768M276 184.616a3.384 3.384 0 1 1 0 6.768 3.384 3.384 0 0 1 0-6.768M292 184.616a3.384 3.384 0 1 1 0 6.768 3.384 3.384 0 0 1 0-6.768M316 184.616a3.384 3.384 0 1 1 0 6.768 3.384 3.384 0 0 1 0-6.768M7.52 192.616H3.384a3.384 3.384 0 1 0 0 6.768H8v-6.768zM12 192.616H8v6.768h8v-6.768zM20.616 192.616H16v6.768h4.616a3.384 3.384 0 0 0 0-6.768M39.52 192.616h-4.136a3.384 3.384 0 1 0 0 6.768H40v-6.768zM44 192.616h-4v6.768h8v-6.768zM52.616 192.616H48v6.768h4.616a3.384 3.384 0 0 0 0-6.768M79.52 192.616h-4.136a3.384 3.384 0 1 0 0 6.768H80v-6.768zM84.616 192.616H80v6.768h4.616a3.384 3.384 0 0 0 0-6.768M116 192.616a3.384 3.384 0 1 1 0 6.768 3.384 3.384 0 0 1 0-6.768M132 192.616a3.384 3.384 0 1 1 0 6.768 3.384 3.384 0 0 1 0-6.768M148 192.616a3.384 3.384 0 1 1 0 6.768 3.384 3.384 0 0 1 0-6.768M164 192.616a3.384 3.384 0 1 1 0 6.768 3.384 3.384 0 0 1 0-6.768M188 192.616a3.384 3.384 0 1 1 0 6.768 3.384 3.384 0 0 1 0-6.768M207.52 192.616h-4.136a3.384 3.384 0 1 0 0 6.768H208v-6.768zM212.616 192.616H208v6.768h4.616a3.384 3.384 0 0 0 0-6.768M239.52 192.616h-4.136a3.384 3.384 0 1 0 0 6.768H240v-6.768zM244 192.616h-4v6.768h8v-6.768zM252 192.616h-4v6.768h8v-6.768zM260.616 192.616H256v6.768h4.616a3.384 3.384 0 0 0 0-6.768M284 192.616a3.384 3.384 0 1 1 0 6.768 3.384 3.384 0 0 1 0-6.768M303.52 192.616h-4.136a3.384 3.384 0 1 0 0 6.768H304v-6.768zM308.616 192.616H304v6.768h4.616a3.384 3.384 0 0 0 0-6.768M7.52 200.616H3.384a3.384 3.384 0 1 0 0 6.768H8v-6.768zM12 200.616H8v6.768h8v-6.768zM20.616 200.616H16v6.768h4.616a3.384 3.384 0 0 0 0-6.768M44 200.616a3.384 3.384 0 1 1 0 6.768 3.384 3.384 0 0 1 0-6.768M76 200.616a3.384 3.384 0 1 1 0 6.768 3.384 3.384 0 0 1 0-6.768M111.52 200.616h-4.136a3.384 3.384 0 1 0 0 6.768H112v-6.768zM116.616 200.616H112v6.768h4.616a3.384 3.384 0 0 0 0-6.768M135.52 200.616h-4.136a3.384 3.384 0 1 0 0 6.768H136v-6.768zM140 200.616h-4v6.768h8v-6.768zM148.616 200.616H144v6.768h4.616a3.384 3.384 0 0 0 0-6.768M167.52 200.616h-4.136a3.384 3.384 0 1 0 0 6.768H168v-6.768zM172 200.616h-4v6.768h8v-6.768zM180 200.616h-4v6.768h8v-6.768zM188.616 200.616H184v6.768h4.616a3.384 3.384 0 0 0 0-6.768M207.52 200.616h-4.136a3.384 3.384 0 1 0 0 6.768H208v-6.768zM212.616 200.616H208v6.768h4.616a3.384 3.384 0 0 0 0-6.768M231.52 200.616h-4.136a3.384 3.384 0 1 0 0 6.768H232v-6.768zM236 200.616h-4v6.768h8v-6.768zM244 200.616h-4v6.768h8v-6.768zM252 200.616h-4v6.768h8v-6.768zM260 200.616h-4v6.768h8v-6.768zM268 200.616h-4v6.768h8v-6.768zM276 200.616h-4v6.768h8v-6.768zM284 200.616h-4v6.768h8v-6.768zM292 200.616h-4v6.768h8v-6.768zM300.616 200.616H296v6.768h4.616a3.384 3.384 0 0 0 0-6.768M324 200.616a3.384 3.384 0 1 1 0 6.768 3.384 3.384 0 0 1 0-6.768M4 208.616a3.384 3.384 0 1 1 0 6.768 3.384 3.384 0 0 1 0-6.768M20 208.616a3.384 3.384 0 1 1 0 6.768 3.384 3.384 0 0 1 0-6.768M55.52 208.616h-4.136a3.384 3.384 0 1 0 0 6.768H56v-6.768zM60.616 208.616H56v6.768h4.616a3.384 3.384 0 0 0 0-6.768M84 208.616a3.384 3.384 0 1 1 0 6.768 3.384 3.384 0 0 1 0-6.768M103.52 208.616h-4.136a3.384 3.384 0 1 0 0 6.768H104v-6.768zM108 208.616h-4v6.768h8v-6.768zM116.616 208.616H112v6.768h4.616a3.384 3.384 0 0 0 0-6.768M151.52 208.616h-4.136a3.384 3.384 0 1 0 0 6.768H152v-6.768zM156 208.616h-4v6.768h8v-6.768zM164 208.616h-4v6.768h8v-6.768zM172.616 208.616H168v6.768h4.616a3.384 3.384 0 0 0 0-6.768M191.52 208.616h-4.136a3.384 3.384 0 1 0 0 6.768H192v-6.768zM196.616 208.616H192v6.768h4.616a3.384 3.384 0 0 0 0-6.768M220 208.616a3.384 3.384 0 1 1 0 6.768 3.384 3.384 0 0 1 0-6.768M244 208.616a3.384 3.384 0 1 1 0 6.768 3.384 3.384 0 0 1 0-6.768M263.52 208.616h-4.136a3.384 3.384 0 1 0 0 6.768H264v-6.768zM268.616 208.616H264v6.768h4.616a3.384 3.384 0 0 0 0-6.768M287.52 208.616h-4.136a3.384 3.384 0 1 0 0 6.768H288v-6.768zM292.616 208.616H288v6.768h4.616a3.384 3.384 0 0 0 0-6.768M316 208.616a3.384 3.384 0 1 1 0 6.768 3.384 3.384 0 0 1 0-6.768M15.52 216.616h-4.136a3.384 3.384 0 1 0 0 6.768H16v-6.768zM20 216.616h-4v6.768h8v-6.768zM28 216.616h-4v6.768h8v-6.768zM36.616 216.616H32v6.768h4.616a3.384 3.384 0 0 0 0-6.768M68 216.616a3.384 3.384 0 1 1 0 6.768 3.384 3.384 0 0 1 0-6.768M95.52 216.616h-4.136a3.384 3.384 0 1 0 0 6.768H96v-6.768zM100.616 216.616H96v6.768h4.616a3.384 3.384 0 0 0 0-6.768M116 216.616a3.384 3.384 0 1 1 0 6.768 3.384 3.384 0 0 1 0-6.768M132 216.616a3.384 3.384 0 1 1 0 6.768 3.384 3.384 0 0 1 0-6.768M164 216.616a3.384 3.384 0 1 1 0 6.768 3.384 3.384 0 0 1 0-6.768M188 216.616a3.384 3.384 0 1 1 0 6.768 3.384 3.384 0 0 1 0-6.768M207.52 216.616h-4.136a3.384 3.384 0 1 0 0 6.768H208v-6.768zM212 216.616h-4v6.768h8v-6.768zM220 216.616h-4v6.768h8v-6.768zM228.616 216.616H224v6.768h4.616a3.384 3.384 0 0 0 0-6.768M255.52 216.616h-4.136a3.384 3.384 0 1 0 0 6.768H256v-6.768zM260.616 216.616H256v6.768h4.616a3.384 3.384 0 0 0 0-6.768M300 216.616a3.384 3.384 0 1 1 0 6.768 3.384 3.384 0 0 1 0-6.768M316 216.616a3.384 3.384 0 1 1 0 6.768 3.384 3.384 0 0 1 0-6.768M39.52 224.616h-4.136a3.384 3.384 0 1 0 0 6.768H40v-6.768zM44 224.616h-4v6.768h8v-6.768zM52 224.616h-4v6.768h8v-6.768zM60 224.616h-4v6.768h8v-6.768zM68.616 224.616H64v6.768h4.616a3.384 3.384 0 0 0 0-6.768M92 224.616a3.384 3.384 0 1 1 0 6.768 3.384 3.384 0 0 1 0-6.768M119.52 224.616h-4.136a3.384 3.384 0 1 0 0 6.768H120v-6.768zM124 224.616h-4v6.768h8v-6.768zM132.616 224.616H128v6.768h4.616a3.384 3.384 0 0 0 0-6.768M148 224.616a3.384 3.384 0 1 1 0 6.768 3.384 3.384 0 0 1 0-6.768M164 224.616a3.384 3.384 0 1 1 0 6.768 3.384 3.384 0 0 1 0-6.768M207.52 224.616h-4.136a3.384 3.384 0 1 0 0 6.768H208v-6.768zM212.616 224.616H208v6.768h4.616a3.384 3.384 0 0 0 0-6.768M231.52 224.616h-4.136a3.384 3.384 0 1 0 0 6.768H232v-6.768zM236.616 224.616H232v6.768h4.616a3.384 3.384 0 0 0 0-6.768M255.52 224.616h-4.136a3.384 3.384 0 1 0 0 6.768H256v-6.768zM260 224.616h-4v6.768h8v-6.768zM268.616 224.616H264v6.768h4.616a3.384 3.384 0 0 0 0-6.768M303.52 224.616h-4.136a3.384 3.384 0 1 0 0 6.768H304v-6.768zM308 224.616h-4v6.768h8v-6.768zM316.616 224.616H312v6.768h4.616a3.384 3.384 0 0 0 0-6.768M7.52 232.616H3.384a3.384 3.384 0 1 0 0 6.768H8v-6.768zM12 232.616H8v6.768h8v-6.768zM20 232.616h-4v6.768h8v-6.768zM28 232.616h-4v6.768h8v-6.768zM36.616 232.616H32v6.768h4.616a3.384 3.384 0 0 0 0-6.768M68 232.616a3.384 3.384 0 1 1 0 6.768 3.384 3.384 0 0 1 0-6.768M143.52 232.616h-4.136a3.384 3.384 0 1 0 0 6.768H144v-6.768zM148 232.616h-4v6.768h8v-6.768zM156.616 232.616H152v6.768h4.616a3.384 3.384 0 0 0 0-6.768M172 232.616a3.384 3.384 0 1 1 0 6.768 3.384 3.384 0 0 1 0-6.768M191.52 232.616h-4.136a3.384 3.384 0 1 0 0 6.768H192v-6.768zM196.616 232.616H192v6.768h4.616a3.384 3.384 0 0 0 0-6.768M215.52 232.616h-4.136a3.384 3.384 0 1 0 0 6.768H216v-6.768zM220.616 232.616H216v6.768h4.616a3.384 3.384 0 0 0 0-6.768M247.52 232.616h-4.136a3.384 3.384 0 1 0 0 6.768H248v-6.768zM252.616 232.616H248v6.768h4.616a3.384 3.384 0 0 0 0-6.768M279.52 232.616h-4.136a3.384 3.384 0 1 0 0 6.768H280v-6.768zM284 232.616h-4v6.768h8v-6.768zM292 232.616h-4v6.768h8v-6.768zM300.616 232.616H296v6.768h4.616a3.384 3.384 0 0 0 0-6.768M319.52 232.616h-4.136a3.384 3.384 0 1 0 0 6.768H320v-6.768zM324.616 232.616H320v6.768h4.616a3.384 3.384 0 0 0 0-6.768M4 240.616a3.384 3.384 0 1 1 0 6.768 3.384 3.384 0 0 1 0-6.768M55.52 240.616h-4.136a3.384 3.384 0 1 0 0 6.768H56v-6.768zM60 240.616h-4v6.768h8v-6.768zM68.616 240.616H64v6.768h4.616a3.384 3.384 0 0 0 0-6.768M87.52 240.616h-4.136a3.384 3.384 0 1 0 0 6.768H88v-6.768zM92.616 240.616H88v6.768h4.616a3.384 3.384 0 0 0 0-6.768M140 240.616a3.384 3.384 0 1 1 0 6.768 3.384 3.384 0 0 1 0-6.768M156 240.616a3.384 3.384 0 1 1 0 6.768 3.384 3.384 0 0 1 0-6.768M175.52 240.616h-4.136a3.384 3.384 0 1 0 0 6.768H176v-6.768zM180 240.616h-4v6.768h8v-6.768zM188.616 240.616H184v6.768h4.616a3.384 3.384 0 0 0 0-6.768M215.52 240.616h-4.136a3.384 3.384 0 1 0 0 6.768H216v-6.768zM220 240.616h-4v6.768h8v-6.768zM228 240.616h-4v6.768h8v-6.768zM236 240.616h-4v6.768h8v-6.768zM244.616 240.616H240v6.768h4.616a3.384 3.384 0 0 0 0-6.768M279.52 240.616h-4.136a3.384 3.384 0 1 0 0 6.768H280v-6.768zM284 240.616h-4v6.768h8v-6.768zM292.616 240.616H288v6.768h4.616a3.384 3.384 0 0 0 0-6.768M4 248.616a3.384 3.384 0 1 1 0 6.768 3.384 3.384 0 0 1 0-6.768M20 248.616a3.384 3.384 0 1 1 0 6.768 3.384 3.384 0 0 1 0-6.768M60 248.616a3.384 3.384 0 1 1 0 6.768 3.384 3.384 0 0 1 0-6.768M76 248.616a3.384 3.384 0 1 1 0 6.768 3.384 3.384 0 0 1 0-6.768M95.52 248.616h-4.136a3.384 3.384 0 1 0 0 6.768H96v-6.768zM100.616 248.616H96v6.768h4.616a3.384 3.384 0 0 0 0-6.768M127.52 248.616h-4.136a3.384 3.384 0 1 0 0 6.768H128v-6.768zM132 248.616h-4v6.768h8v-6.768zM140.616 248.616H136v6.768h4.616a3.384 3.384 0 0 0 0-6.768M159.52 248.616h-4.136a3.384 3.384 0 1 0 0 6.768H160v-6.768zM164.616 248.616H160v6.768h4.616a3.384 3.384 0 0 0 0-6.768M183.52 248.616h-4.136a3.384 3.384 0 1 0 0 6.768H184v-6.768zM188.616 248.616H184v6.768h4.616a3.384 3.384 0 0 0 0-6.768M220 248.616a3.384 3.384 0 1 1 0 6.768 3.384 3.384 0 0 1 0-6.768M260 248.616a3.384 3.384 0 1 1 0 6.768 3.384 3.384 0 0 1 0-6.768M276 248.616a3.384 3.384 0 1 1 0 6.768 3.384 3.384 0 0 1 0-6.768M300 248.616a3.384 3.384 0 1 1 0 6.768 3.384 3.384 0 0 1 0-6.768M4 256.616a3.384 3.384 0 1 1 0 6.768 3.384 3.384 0 0 1 0-6.768M28 256.616a3.384 3.384 0 1 1 0 6.768 3.384 3.384 0 0 1 0-6.768M47.52 256.616h-4.136a3.384 3.384 0 1 0 0 6.768H48v-6.768zM52.616 256.616H48v6.768h4.616a3.384 3.384 0 0 0 0-6.768M76 256.616a3.384 3.384 0 1 1 0 6.768 3.384 3.384 0 0 1 0-6.768M95.52 256.616h-4.136a3.384 3.384 0 1 0 0 6.768H96v-6.768zM100 256.616h-4v6.768h8v-6.768zM108.616 256.616H104v6.768h4.616a3.384 3.384 0 0 0 0-6.768M127.52 256.616h-4.136a3.384 3.384 0 1 0 0 6.768H128v-6.768zM132.616 256.616H128v6.768h4.616a3.384 3.384 0 0 0 0-6.768M156 256.616a3.384 3.384 0 1 1 0 6.768 3.384 3.384 0 0 1 0-6.768M196 256.616a3.384 3.384 0 1 1 0 6.768 3.384 3.384 0 0 1 0-6.768M215.52 256.616h-4.136a3.384 3.384 0 1 0 0 6.768H216v-6.768zM220.616 256.616H216v6.768h4.616a3.384 3.384 0 0 0 0-6.768M236 256.616a3.384 3.384 0 1 1 0 6.768 3.384 3.384 0 0 1 0-6.768M263.52 256.616h-4.136a3.384 3.384 0 1 0 0 6.768H264v-6.768zM268 256.616h-4v6.768h8v-6.768zM276 256.616h-4v6.768h8v-6.768zM284 256.616h-4v6.768h8v-6.768zM292.616 256.616H288v6.768h4.616a3.384 3.384 0 0 0 0-6.768M311.52 256.616h-4.136a3.384 3.384 0 1 0 0 6.768H312v-6.768zM316.616 256.616H312v6.768h4.616a3.384 3.384 0 0 0 0-6.768M71.52 264.616h-4.136a3.384 3.384 0 1 0 0 6.768H72v-6.768zM76 264.616h-4v6.768h8v-6.768zM84.616 264.616H80v6.768h4.616a3.384 3.384 0 0 0 0-6.768M143.52 264.616h-4.136a3.384 3.384 0 1 0 0 6.768H144v-6.768zM148.616 264.616H144v6.768h4.616a3.384 3.384 0 0 0 0-6.768M172 264.616a3.384 3.384 0 1 1 0 6.768 3.384 3.384 0 0 1 0-6.768M199.52 264.616h-4.136a3.384 3.384 0 1 0 0 6.768H200v-6.768zM204 264.616h-4v6.768h8v-6.768zM212.616 264.616H208v6.768h4.616a3.384 3.384 0 0 0 0-6.768M231.52 264.616h-4.136a3.384 3.384 0 1 0 0 6.768H232v-6.768zM236 264.616h-4v6.768h8v-6.768zM244.616 264.616H240v6.768h4.616a3.384 3.384 0 0 0 0-6.768M260 264.616a3.384 3.384 0 1 1 0 6.768 3.384 3.384 0 0 1 0-6.768M292 264.616a3.384 3.384 0 1 1 0 6.768 3.384 3.384 0 0 1 0-6.768M319.52 264.616h-4.136a3.384 3.384 0 1 0 0 6.768H320v-6.768zM324.616 264.616H320v6.768h4.616a3.384 3.384 0 0 0 0-6.768M76 272.616a3.384 3.384 0 1 1 0 6.768 3.384 3.384 0 0 1 0-6.768M92 272.616a3.384 3.384 0 1 1 0 6.768 3.384 3.384 0 0 1 0-6.768M111.52 272.616h-4.136a3.384 3.384 0 1 0 0 6.768H112v-6.768zM116.616 272.616H112v6.768h4.616a3.384 3.384 0 0 0 0-6.768M140 272.616a3.384 3.384 0 1 1 0 6.768 3.384 3.384 0 0 1 0-6.768M164 272.616a3.384 3.384 0 1 1 0 6.768 3.384 3.384 0 0 1 0-6.768M183.52 272.616h-4.136a3.384 3.384 0 1 0 0 6.768H184v-6.768zM188.616 272.616H184v6.768h4.616a3.384 3.384 0 0 0 0-6.768M223.52 272.616h-4.136a3.384 3.384 0 1 0 0 6.768H224v-6.768zM228 272.616h-4v6.768h8v-6.768zM236.616 272.616H232v6.768h4.616a3.384 3.384 0 0 0 0-6.768M255.52 272.616h-4.136a3.384 3.384 0 1 0 0 6.768H256v-6.768zM260.616 272.616H256v6.768h4.616a3.384 3.384 0 0 0 0-6.768M276 272.616a3.384 3.384 0 1 1 0 6.768 3.384 3.384 0 0 1 0-6.768M292 272.616a3.384 3.384 0 1 1 0 6.768 3.384 3.384 0 0 1 0-6.768M308 272.616a3.384 3.384 0 1 1 0 6.768 3.384 3.384 0 0 1 0-6.768M79.52 280.616h-4.136a3.384 3.384 0 1 0 0 6.768H80v-6.768zM84.616 280.616H80v6.768h4.616a3.384 3.384 0 0 0 0-6.768M124 280.616a3.384 3.384 0 1 1 0 6.768 3.384 3.384 0 0 1 0-6.768M175.52 280.616h-4.136a3.384 3.384 0 1 0 0 6.768H176v-6.768zM180.616 280.616H176v6.768h4.616a3.384 3.384 0 0 0 0-6.768M196 280.616a3.384 3.384 0 1 1 0 6.768 3.384 3.384 0 0 1 0-6.768M239.52 280.616h-4.136a3.384 3.384 0 1 0 0 6.768H240v-6.768zM244 280.616h-4v6.768h8v-6.768zM252 280.616h-4v6.768h8v-6.768zM260.616 280.616H256v6.768h4.616a3.384 3.384 0 0 0 0-6.768M295.52 280.616h-4.136a3.384 3.384 0 1 0 0 6.768H296v-6.768zM300.616 280.616H296v6.768h4.616a3.384 3.384 0 0 0 0-6.768M319.52 280.616h-4.136a3.384 3.384 0 1 0 0 6.768H320v-6.768zM324.616 280.616H320v6.768h4.616a3.384 3.384 0 0 0 0-6.768M71.52 288.616h-4.136a3.384 3.384 0 1 0 0 6.768H72v-6.768zM76.616 288.616H72v6.768h4.616a3.384 3.384 0 0 0 0-6.768M124 288.616a3.384 3.384 0 1 1 0 6.768 3.384 3.384 0 0 1 0-6.768M143.52 288.616h-4.136a3.384 3.384 0 1 0 0 6.768H144v-6.768zM148 288.616h-4v6.768h8v-6.768zM156.616 288.616H152v6.768h4.616a3.384 3.384 0 0 0 0-6.768M199.52 288.616h-4.136a3.384 3.384 0 1 0 0 6.768H200v-6.768zM204.616 288.616H200v6.768h4.616a3.384 3.384 0 0 0 0-6.768M220 288.616a3.384 3.384 0 1 1 0 6.768 3.384 3.384 0 0 1 0-6.768M263.52 288.616h-4.136a3.384 3.384 0 1 0 0 6.768H264v-6.768zM268 288.616h-4v6.768h8v-6.768zM276 288.616h-4v6.768h8v-6.768zM284 288.616h-4v6.768h8v-6.768zM292.616 288.616H288v6.768h4.616a3.384 3.384 0 0 0 0-6.768M308 288.616a3.384 3.384 0 1 1 0 6.768 3.384 3.384 0 0 1 0-6.768M324 288.616a3.384 3.384 0 1 1 0 6.768 3.384 3.384 0 0 1 0-6.768M71.52 296.616h-4.136a3.384 3.384 0 1 0 0 6.768H72v-6.768zM76 296.616h-4v6.768h8v-6.768zM84 296.616h-4v6.768h8v-6.768zM92 296.616h-4v6.768h8v-6.768zM100 296.616h-4v6.768h8v-6.768zM108 296.616h-4v6.768h8v-6.768zM116.616 296.616H112v6.768h4.616a3.384 3.384 0 0 0 0-6.768M132 296.616a3.384 3.384 0 1 1 0 6.768 3.384 3.384 0 0 1 0-6.768M172 296.616a3.384 3.384 0 1 1 0 6.768 3.384 3.384 0 0 1 0-6.768M191.52 296.616h-4.136a3.384 3.384 0 1 0 0 6.768H192v-6.768zM196.616 296.616H192v6.768h4.616a3.384 3.384 0 0 0 0-6.768M212 296.616a3.384 3.384 0 1 1 0 6.768 3.384 3.384 0 0 1 0-6.768M239.52 296.616h-4.136a3.384 3.384 0 1 0 0 6.768H240v-6.768zM244 296.616h-4v6.768h8v-6.768zM252.616 296.616H248v6.768h4.616a3.384 3.384 0 0 0 0-6.768M268 296.616a3.384 3.384 0 1 1 0 6.768 3.384 3.384 0 0 1 0-6.768M284 296.616a3.384 3.384 0 1 1 0 6.768 3.384 3.384 0 0 1 0-6.768M324 296.616a3.384 3.384 0 1 1 0 6.768 3.384 3.384 0 0 1 0-6.768M71.52 304.616h-4.136a3.384 3.384 0 1 0 0 6.768H72v-6.768zM76.616 304.616H72v6.768h4.616a3.384 3.384 0 0 0 0-6.768M95.52 304.616h-4.136a3.384 3.384 0 1 0 0 6.768H96v-6.768zM100 304.616h-4v6.768h8v-6.768zM108.616 304.616H104v6.768h4.616a3.384 3.384 0 0 0 0-6.768M127.52 304.616h-4.136a3.384 3.384 0 1 0 0 6.768H128v-6.768zM132.616 304.616H128v6.768h4.616a3.384 3.384 0 0 0 0-6.768M196 304.616a3.384 3.384 0 1 1 0 6.768 3.384 3.384 0 0 1 0-6.768M215.52 304.616h-4.136a3.384 3.384 0 1 0 0 6.768H216v-6.768zM220.616 304.616H216v6.768h4.616a3.384 3.384 0 0 0 0-6.768M236 304.616a3.384 3.384 0 1 1 0 6.768 3.384 3.384 0 0 1 0-6.768M252 304.616a3.384 3.384 0 1 1 0 6.768 3.384 3.384 0 0 1 0-6.768M271.52 304.616h-4.136a3.384 3.384 0 1 0 0 6.768H272v-6.768zM276 304.616h-4v6.768h8v-6.768zM284 304.616h-4v6.768h8v-6.768zM292.616 304.616H288v6.768h4.616a3.384 3.384 0 0 0 0-6.768M311.52 304.616h-4.136a3.384 3.384 0 1 0 0 6.768H312v-6.768zM316.616 304.616H312v6.768h4.616a3.384 3.384 0 0 0 0-6.768M76 312.616a3.384 3.384 0 1 1 0 6.768 3.384 3.384 0 0 1 0-6.768M92 312.616a3.384 3.384 0 1 1 0 6.768 3.384 3.384 0 0 1 0-6.768M127.52 312.616h-4.136a3.384 3.384 0 1 0 0 6.768H128v-6.768zM132.616 312.616H128v6.768h4.616a3.384 3.384 0 0 0 0-6.768M159.52 312.616h-4.136a3.384 3.384 0 1 0 0 6.768H160v-6.768zM164.616 312.616H160v6.768h4.616a3.384 3.384 0 0 0 0-6.768M180 312.616a3.384 3.384 0 1 1 0 6.768 3.384 3.384 0 0 1 0-6.768M207.52 312.616h-4.136a3.384 3.384 0 1 0 0 6.768H208v-6.768zM212.616 312.616H208v6.768h4.616a3.384 3.384 0 0 0 0-6.768M228 312.616a3.384 3.384 0 1 1 0 6.768 3.384 3.384 0 0 1 0-6.768M244 312.616a3.384 3.384 0 1 1 0 6.768 3.384 3.384 0 0 1 0-6.768M263.52 312.616h-4.136a3.384 3.384 0 1 0 0 6.768H264v-6.768zM268.616 312.616H264v6.768h4.616a3.384 3.384 0 0 0 0-6.768M295.52 312.616h-4.136a3.384 3.384 0 1 0 0 6.768H296v-6.768zM300.616 312.616H296v6.768h4.616a3.384 3.384 0 0 0 0-6.768M316 312.616a3.384 3.384 0 1 1 0 6.768 3.384 3.384 0 0 1 0-6.768M87.52 320.616h-4.136a3.384 3.384 0 1 0 0 6.768H88v-6.768zM92 320.616h-4v6.768h8v-6.768zM100.616 320.616H96v6.768h4.616a3.384 3.384 0 0 0 0-6.768M132 320.616a3.384 3.384 0 1 1 0 6.768 3.384 3.384 0 0 1 0-6.768M148 320.616a3.384 3.384 0 1 1 0 6.768 3.384 3.384 0 0 1 0-6.768M175.52 320.616h-4.136a3.384 3.384 0 1 0 0 6.768H176v-6.768zM180.616 320.616H176v6.768h4.616a3.384 3.384 0 0 0 0-6.768M207.52 320.616h-4.136a3.384 3.384 0 1 0 0 6.768H208v-6.768zM212.616 320.616H208v6.768h4.616a3.384 3.384 0 0 0 0-6.768M236 320.616a3.384 3.384 0 1 1 0 6.768 3.384 3.384 0 0 1 0-6.768M252 320.616a3.384 3.384 0 1 1 0 6.768 3.384 3.384 0 0 1 0-6.768M279.52 320.616h-4.136a3.384 3.384 0 1 0 0 6.768H280v-6.768zM284 320.616h-4v6.768h8v-6.768zM292.616 320.616H288v6.768h4.616a3.384 3.384 0 0 0 0-6.768M308 320.616a3.384 3.384 0 1 1 0 6.768 3.384 3.384 0 0 1 0-6.768"/>
			<g fill="#fff">
				<path fill="none" d="M36.881 8.404H19.119c-2.286 0-4.407.705-6.148 1.903a10.65 10.65 0 0 0-3.275 3.596A10.26 10.26 0 0 0 8.4 18.904v18.184c0 5.793 4.808 10.506 10.721 10.506l8.879.002 8.879-.003c5.913 0 10.721-4.713 10.721-10.505V18.904c0-5.79-4.808-10.5-10.719-10.5"/>
				<path d="M36.881.004H19.119c-8.657 0-15.99 5.72-18.335 13.537A18.6 18.6 0 0 0 0 18.904v18.184c0 10.427 8.58 18.906 19.119 18.906l8.881.002 8.881-.003C47.421 55.993 56 47.514 56 37.088V18.904C56 8.483 47.42.004 36.881.004M47.6 37.088c0 5.793-4.808 10.506-10.721 10.506L28 47.596l-8.879-.003C13.208 47.593 8.4 42.88 8.4 37.088V18.904c0-1.809.47-3.512 1.295-5a10.65 10.65 0 0 1 3.275-3.597 10.8 10.8 0 0 1 6.148-1.903h17.763c5.91 0 10.719 4.71 10.719 10.5z"/>
			</g>
			<g fill="#fff">
				<path fill="none" d="M308.881 8.404h-17.762c-2.286 0-4.407.705-6.148 1.903a10.65 10.65 0 0 0-3.275 3.596 10.26 10.26 0 0 0-1.296 5.001v18.184c0 5.793 4.808 10.506 10.721 10.506l8.879.002 8.879-.003c5.913 0 10.721-4.713 10.721-10.505V18.904c0-5.79-4.808-10.5-10.719-10.5"/>
				<path d="M308.881.004h-17.762c-8.657 0-15.99 5.72-18.335 13.537a18.6 18.6 0 0 0-.784 5.363v18.184c0 10.427 8.58 18.906 19.119 18.906l8.881.002 8.881-.003c10.54 0 19.119-8.479 19.119-18.905V18.904c0-10.421-8.58-18.9-19.119-18.9M319.6 37.088c0 5.793-4.808 10.506-10.721 10.506l-8.879.002-8.879-.003c-5.913 0-10.721-4.713-10.721-10.505V18.904c0-1.809.47-3.512 1.295-5a10.65 10.65 0 0 1 3.275-3.597 10.8 10.8 0 0 1 6.148-1.903h17.763c5.91 0 10.719 4.71 10.719 10.5z"/>
			</g>
			<g fill="#fff">
				<path fill="none" d="M36.881 280.404H19.119c-2.286 0-4.407.705-6.148 1.903a10.65 10.65 0 0 0-3.275 3.596 10.26 10.26 0 0 0-1.296 5.001v18.184c0 5.793 4.808 10.506 10.721 10.506l8.879.002 8.879-.003c5.913 0 10.721-4.713 10.721-10.505v-18.184c0-5.79-4.808-10.5-10.719-10.5"/>
				<path d="M36.881 272.004H19.119c-8.657 0-15.99 5.72-18.335 13.537A18.6 18.6 0 0 0 0 290.904v18.184c0 10.427 8.58 18.906 19.119 18.906l8.881.002 8.881-.003c10.54 0 19.119-8.479 19.119-18.905v-18.184c0-10.421-8.58-18.9-19.119-18.9M47.6 309.088c0 5.793-4.808 10.506-10.721 10.506l-8.879.002-8.879-.003c-5.913 0-10.721-4.713-10.721-10.505v-18.184c0-1.809.47-3.512 1.295-5a10.65 10.65 0 0 1 3.275-3.597 10.8 10.8 0 0 1 6.148-1.903h17.763c5.91 0 10.719 4.71 10.719 10.5z"/>
			</g>
			<g fill="#fff">
				<path d="M39.76 20.003c0 2.078-1.589 3.763-3.548 3.763H19.787c-1.959 0-3.547-1.685-3.547-3.763s1.588-3.763 3.547-3.763h16.425c1.96 0 3.548 1.685 3.548 3.763M39.76 35.997c0 2.078-1.589 3.763-3.548 3.763H19.787c-1.959 0-3.547-1.685-3.547-3.763 0-2.079 1.588-3.763 3.547-3.763h16.425c1.96 0 3.548 1.684 3.548 3.763M39.76 28c0 2.078-1.589 3.763-3.548 3.763H19.787c-1.959 0-3.547-1.685-3.547-3.763 0-2.079 1.588-3.763 3.547-3.763h16.425c1.96 0 3.548 1.684 3.548 3.763"/>
			</g>
			<g fill="#fff">
				<path d="M311.76 20.003c0 2.078-1.589 3.763-3.548 3.763h-16.425c-1.959 0-3.547-1.685-3.547-3.763s1.588-3.763 3.547-3.763h16.425c1.96 0 3.548 1.685 3.548 3.763M311.76 35.997c0 2.078-1.589 3.763-3.548 3.763h-16.425c-1.959 0-3.547-1.685-3.547-3.763 0-2.079 1.588-3.763 3.547-3.763h16.425c1.96 0 3.548 1.684 3.548 3.763M311.76 28c0 2.078-1.589 3.763-3.548 3.763h-16.425c-1.959 0-3.547-1.685-3.547-3.763 0-2.079 1.588-3.763 3.547-3.763h16.425c1.96 0 3.548 1.684 3.548 3.763"/>
			</g>
			<g fill="#fff">
				<path d="M39.76 292.003c0 2.078-1.589 3.763-3.548 3.763H19.787c-1.959 0-3.547-1.685-3.547-3.763s1.588-3.763 3.547-3.763h16.425c1.96 0 3.548 1.685 3.548 3.763M39.76 307.997c0 2.078-1.589 3.763-3.548 3.763H19.787c-1.959 0-3.547-1.685-3.547-3.763 0-2.079 1.588-3.763 3.547-3.763h16.425c1.96 0 3.548 1.684 3.548 3.763M39.76 300c0 2.078-1.589 3.763-3.548 3.763H19.787c-1.959 0-3.547-1.685-3.547-3.763 0-2.079 1.588-3.763 3.547-3.763h16.425c1.96 0 3.548 1.684 3.548 3.763"/>
			</g>
		</mask>
	</defs>
	<path fill="url(#a)" d="M0 0h328v328H0z" mask="url(#b)" transform="translate(16 16)"/>
	<svg xmlns="http://www.w3.org/2000/svg" xmlns:svg="http://www.w3.org/2000/svg" transform="translate(140 140)scale(.08)" viewBox="0 0 1000 1000">
		<path fill="#005983" d="M0 500C0 223.852 223.862 0 500 0s500 223.852 500 500c0 276.138-223.862 500-500 500S0 776.138 0 500"/>
		<path fill="#f1f2f2" d="M255.995 738.907h115.35V391.89h-115.35zm58.433-514.289c-39.475 0-65.29 25.906-65.29 59.946 0 33.32 25.076 59.973 63.776 59.973h.747c40.25 0 65.271-26.654 65.271-59.973-.766-34.04-25.021-59.946-64.504-59.946m472.908 315.285v199.004H671.96V553.253c0-46.633-16.66-78.466-58.432-78.466-31.88 0-50.818 21.438-59.18 42.192-3.037 7.413-3.82 17.717-3.82 28.121v193.807H435.138s1.55-314.455 0-347.017h115.387v49.176l-.766 1.14h.766v-1.14c15.338-23.598 42.684-57.319 103.98-57.319 75.921 0 132.83 49.587 132.83 156.156"/>
	</svg>
</svg>
