<svg xmlns="http://www.w3.org/2000/svg" xml:space="preserve" viewBox="0 0 360 360">
  <path fill="#0f172a" d="M0 0h369v369H0z"/>
    <defs transform="translate(18 18)">
      <linearGradient id="a" gradientTransform="rotate(90)">
        <stop offset="5%" stop-color="#fff"/>
        <stop offset="95%" stop-color="#38bdf8"/>
      </linearGradient>
      <mask id="b">
        <path fill="#fff" d="M98.46.693h-4.653a3.807 3.807 0 1 0 0 7.614H99V.693zM103.5.693H99v7.614h9V.693zM112.5.693H108v7.614h9V.693zM122.193.693H117v7.614h5.193a3.807 3.807 0 0 0 0-7.614M197.46.693h-4.653a3.807 3.807 0 1 0 0 7.614H198V.693zM202.5.693H198v7.614h9V.693zM211.5.693H207v7.614h9V.693zM221.193.693H216v7.614h5.193a3.807 3.807 0 0 0 0-7.614M238.5.693a3.807 3.807 0 1 1 0 7.614 3.807 3.807 0 0 1 0-7.614M85.5 9.693a3.807 3.807 0 1 1 0 7.614 3.807 3.807 0 0 1 0-7.614M107.46 9.693h-4.653a3.807 3.807 0 1 0 0 7.614H108V9.693zM112.5 9.693H108v7.614h9V9.693zM121.5 9.693H117v7.614h9V9.693zM131.193 9.693H126v7.614h5.193a3.807 3.807 0 0 0 0-7.614M161.46 9.693h-4.653a3.807 3.807 0 1 0 0 7.614H162V9.693zM166.5 9.693H162v7.614h9V9.693zM175.5 9.693H171v7.614h9V9.693zM185.193 9.693H180v7.614h5.193a3.807 3.807 0 0 0 0-7.614M215.46 9.693h-4.653a3.807 3.807 0 1 0 0 7.614H216V9.693zM221.193 9.693H216v7.614h5.193a3.807 3.807 0 0 0 0-7.614M256.5 9.693a3.807 3.807 0 1 1 0 7.614 3.807 3.807 0 0 1 0-7.614M76.5 18.693a3.807 3.807 0 1 1 0 7.614 3.807 3.807 0 0 1 0-7.614M98.46 18.693h-4.653a3.807 3.807 0 1 0 0 7.614H99v-7.614zM103.5 18.693H99v7.614h9v-7.614zM113.193 18.693H108v7.614h5.193a3.807 3.807 0 0 0 0-7.614M134.46 18.693h-4.653a3.807 3.807 0 1 0 0 7.614H135v-7.614zM140.193 18.693H135v7.614h5.193a3.807 3.807 0 0 0 0-7.614M166.5 18.693a3.807 3.807 0 1 1 0 7.614 3.807 3.807 0 0 1 0-7.614M211.5 18.693a3.807 3.807 0 1 1 0 7.614 3.807 3.807 0 0 1 0-7.614M233.46 18.693h-4.653a3.807 3.807 0 1 0 0 7.614H234v-7.614zM239.193 18.693H234v7.614h5.193a3.807 3.807 0 0 0 0-7.614M256.5 18.693a3.807 3.807 0 1 1 0 7.614 3.807 3.807 0 0 1 0-7.614M76.5 27.693a3.807 3.807 0 1 1 0 7.614 3.807 3.807 0 0 1 0-7.614M112.5 27.693a3.807 3.807 0 1 1 0 7.614 3.807 3.807 0 0 1 0-7.614M134.46 27.693h-4.653a3.807 3.807 0 1 0 0 7.614H135v-7.614zM139.5 27.693H135v7.614h9v-7.614zM148.5 27.693H144v7.614h9v-7.614zM158.193 27.693H153v7.614h5.193a3.807 3.807 0 0 0 0-7.614M184.5 27.693a3.807 3.807 0 1 1 0 7.614 3.807 3.807 0 0 1 0-7.614M206.46 27.693h-4.653a3.807 3.807 0 1 0 0 7.614H207v-7.614zM211.5 27.693H207v7.614h9v-7.614zM221.193 27.693H216v7.614h5.193a3.807 3.807 0 0 0 0-7.614M256.5 27.693a3.807 3.807 0 1 1 0 7.614 3.807 3.807 0 0 1 0-7.614M94.5 36.693a3.807 3.807 0 1 1 0 7.614 3.807 3.807 0 0 1 0-7.614M139.5 36.693a3.807 3.807 0 1 1 0 7.614 3.807 3.807 0 0 1 0-7.614M179.46 36.693h-4.653a3.807 3.807 0 1 0 0 7.614H180v-7.614zM184.5 36.693H180v7.614h9v-7.614zM193.5 36.693H189v7.614h9v-7.614zM203.193 36.693H198v7.614h5.193a3.807 3.807 0 0 0 0-7.614M220.5 36.693a3.807 3.807 0 1 1 0 7.614 3.807 3.807 0 0 1 0-7.614M238.5 36.693a3.807 3.807 0 1 1 0 7.614 3.807 3.807 0 0 1 0-7.614M89.46 45.693h-4.653a3.807 3.807 0 1 0 0 7.614H90v-7.614zM94.5 45.693H90v7.614h9v-7.614zM103.5 45.693H99v7.614h9v-7.614zM112.5 45.693H108v7.614h9v-7.614zM121.5 45.693H117v7.614h9v-7.614zM131.193 45.693H126v7.614h5.193a3.807 3.807 0 0 0 0-7.614M148.5 45.693a3.807 3.807 0 1 1 0 7.614 3.807 3.807 0 0 1 0-7.614M170.46 45.693h-4.653a3.807 3.807 0 1 0 0 7.614H171v-7.614zM176.193 45.693H171v7.614h5.193a3.807 3.807 0 0 0 0-7.614M193.5 45.693a3.807 3.807 0 1 1 0 7.614 3.807 3.807 0 0 1 0-7.614M215.46 45.693h-4.653a3.807 3.807 0 1 0 0 7.614H216v-7.614zM221.193 45.693H216v7.614h5.193a3.807 3.807 0 0 0 0-7.614M238.5 45.693a3.807 3.807 0 1 1 0 7.614 3.807 3.807 0 0 1 0-7.614M76.5 54.693a3.807 3.807 0 1 1 0 7.614 3.807 3.807 0 0 1 0-7.614M94.5 54.693a3.807 3.807 0 1 1 0 7.614 3.807 3.807 0 0 1 0-7.614M112.5 54.693a3.807 3.807 0 1 1 0 7.614 3.807 3.807 0 0 1 0-7.614M130.5 54.693a3.807 3.807 0 1 1 0 7.614 3.807 3.807 0 0 1 0-7.614M148.5 54.693a3.807 3.807 0 1 1 0 7.614 3.807 3.807 0 0 1 0-7.614M166.5 54.693a3.807 3.807 0 1 1 0 7.614 3.807 3.807 0 0 1 0-7.614M184.5 54.693a3.807 3.807 0 1 1 0 7.614 3.807 3.807 0 0 1 0-7.614M202.5 54.693a3.807 3.807 0 1 1 0 7.614 3.807 3.807 0 0 1 0-7.614M220.5 54.693a3.807 3.807 0 1 1 0 7.614 3.807 3.807 0 0 1 0-7.614M238.5 54.693a3.807 3.807 0 1 1 0 7.614 3.807 3.807 0 0 1 0-7.614M256.5 54.693a3.807 3.807 0 1 1 0 7.614 3.807 3.807 0 0 1 0-7.614M98.46 63.693h-4.653a3.807 3.807 0 1 0 0 7.614H99v-7.614zM103.5 63.693H99v7.614h9v-7.614zM113.193 63.693H108v7.614h5.193a3.807 3.807 0 0 0 0-7.614M130.5 63.693a3.807 3.807 0 1 1 0 7.614 3.807 3.807 0 0 1 0-7.614M148.5 63.693a3.807 3.807 0 1 1 0 7.614 3.807 3.807 0 0 1 0-7.614M184.5 63.693a3.807 3.807 0 1 1 0 7.614 3.807 3.807 0 0 1 0-7.614M206.46 63.693h-4.653a3.807 3.807 0 1 0 0 7.614H207v-7.614zM211.5 63.693H207v7.614h9v-7.614zM220.5 63.693H216v7.614h9v-7.614zM230.193 63.693H225v7.614h5.193a3.807 3.807 0 0 0 0-7.614M251.46 63.693h-4.653a3.807 3.807 0 1 0 0 7.614H252v-7.614zM257.193 63.693H252v7.614h5.193a3.807 3.807 0 0 0 0-7.614M35.46 72.693h-4.653a3.807 3.807 0 1 0 0 7.614H36v-7.614zM41.193 72.693H36v7.614h5.193a3.807 3.807 0 0 0 0-7.614M62.46 72.693h-4.653a3.807 3.807 0 1 0 0 7.614H63v-7.614zM68.193 72.693H63v7.614h5.193a3.807 3.807 0 0 0 0-7.614M94.5 72.693a3.807 3.807 0 1 1 0 7.614 3.807 3.807 0 0 1 0-7.614M148.5 72.693a3.807 3.807 0 1 1 0 7.614 3.807 3.807 0 0 1 0-7.614M193.5 72.693a3.807 3.807 0 1 1 0 7.614 3.807 3.807 0 0 1 0-7.614M211.5 72.693a3.807 3.807 0 1 1 0 7.614 3.807 3.807 0 0 1 0-7.614M238.5 72.693a3.807 3.807 0 1 1 0 7.614 3.807 3.807 0 0 1 0-7.614M305.46 72.693h-4.653a3.807 3.807 0 1 0 0 7.614H306v-7.614zM311.193 72.693H306v7.614h5.193a3.807 3.807 0 0 0 0-7.614M13.5 81.693a3.807 3.807 0 1 1 0 7.614 3.807 3.807 0 0 1 0-7.614M44.46 81.693h-4.653a3.807 3.807 0 1 0 0 7.614H45v-7.614zM50.193 81.693H45v7.614h5.193a3.807 3.807 0 0 0 0-7.614M89.46 81.693h-4.653a3.807 3.807 0 1 0 0 7.614H90v-7.614zM95.193 81.693H90v7.614h5.193a3.807 3.807 0 0 0 0-7.614M130.5 81.693a3.807 3.807 0 1 1 0 7.614 3.807 3.807 0 0 1 0-7.614M152.46 81.693h-4.653a3.807 3.807 0 1 0 0 7.614H153v-7.614zM158.193 81.693H153v7.614h5.193a3.807 3.807 0 0 0 0-7.614M197.46 81.693h-4.653a3.807 3.807 0 1 0 0 7.614H198v-7.614zM202.5 81.693H198v7.614h9v-7.614zM211.5 81.693H207v7.614h9v-7.614zM220.5 81.693H216v7.614h9v-7.614zM230.193 81.693H225v7.614h5.193a3.807 3.807 0 0 0 0-7.614M247.5 81.693a3.807 3.807 0 1 1 0 7.614 3.807 3.807 0 0 1 0-7.614M287.46 81.693h-4.653a3.807 3.807 0 1 0 0 7.614H288v-7.614zM293.193 81.693H288v7.614h5.193a3.807 3.807 0 0 0 0-7.614M314.46 81.693h-4.653a3.807 3.807 0 1 0 0 7.614H315v-7.614zM320.193 81.693H315v7.614h5.193a3.807 3.807 0 0 0 0-7.614M17.46 90.693h-4.653a3.807 3.807 0 1 0 0 7.614H18v-7.614zM23.193 90.693H18v7.614h5.193a3.807 3.807 0 0 0 0-7.614M40.5 90.693a3.807 3.807 0 1 1 0 7.614 3.807 3.807 0 0 1 0-7.614M58.5 90.693a3.807 3.807 0 1 1 0 7.614 3.807 3.807 0 0 1 0-7.614M89.46 90.693h-4.653a3.807 3.807 0 1 0 0 7.614H90v-7.614zM95.193 90.693H90v7.614h5.193a3.807 3.807 0 0 0 0-7.614M134.46 90.693h-4.653a3.807 3.807 0 1 0 0 7.614H135v-7.614zM139.5 90.693H135v7.614h9v-7.614zM148.5 90.693H144v7.614h9v-7.614zM157.5 90.693H153v7.614h9v-7.614zM166.5 90.693H162v7.614h9v-7.614zM175.5 90.693H171v7.614h9v-7.614zM185.193 90.693H180v7.614h5.193a3.807 3.807 0 0 0 0-7.614M206.46 90.693h-4.653a3.807 3.807 0 1 0 0 7.614H207v-7.614zM211.5 90.693H207v7.614h9v-7.614zM220.5 90.693H216v7.614h9v-7.614zM230.193 90.693H225v7.614h5.193a3.807 3.807 0 0 0 0-7.614M247.5 90.693a3.807 3.807 0 1 1 0 7.614 3.807 3.807 0 0 1 0-7.614M269.46 90.693h-4.653a3.807 3.807 0 1 0 0 7.614H270v-7.614zM274.5 90.693H270v7.614h9v-7.614zM284.193 90.693H279v7.614h5.193a3.807 3.807 0 0 0 0-7.614M305.46 90.693h-4.653a3.807 3.807 0 1 0 0 7.614H306v-7.614zM311.193 90.693H306v7.614h5.193a3.807 3.807 0 0 0 0-7.614M328.5 90.693a3.807 3.807 0 1 1 0 7.614 3.807 3.807 0 0 1 0-7.614M13.5 99.693a3.807 3.807 0 1 1 0 7.614 3.807 3.807 0 0 1 0-7.614M31.5 99.693a3.807 3.807 0 1 1 0 7.614 3.807 3.807 0 0 1 0-7.614M80.46 99.693h-4.653a3.807 3.807 0 1 0 0 7.614H81v-7.614zM86.193 99.693H81v7.614h5.193a3.807 3.807 0 0 0 0-7.614M103.5 99.693a3.807 3.807 0 1 1 0 7.614 3.807 3.807 0 0 1 0-7.614M166.5 99.693a3.807 3.807 0 1 1 0 7.614 3.807 3.807 0 0 1 0-7.614M197.46 99.693h-4.653a3.807 3.807 0 1 0 0 7.614H198v-7.614zM203.193 99.693H198v7.614h5.193a3.807 3.807 0 0 0 0-7.614M242.46 99.693h-4.653a3.807 3.807 0 1 0 0 7.614H243v-7.614zM247.5 99.693H243v7.614h9v-7.614zM256.5 99.693H252v7.614h9v-7.614zM265.5 99.693H261v7.614h9v-7.614zM275.193 99.693H270v7.614h5.193a3.807 3.807 0 0 0 0-7.614M296.46 99.693h-4.653a3.807 3.807 0 1 0 0 7.614H297v-7.614zM301.5 99.693H297v7.614h9v-7.614zM310.5 99.693H306v7.614h9v-7.614zM319.5 99.693H315v7.614h9v-7.614zM329.193 99.693H324v7.614h5.193a3.807 3.807 0 0 0 0-7.614M8.46 108.693H3.807a3.807 3.807 0 1 0 0 7.614H9v-7.614zM14.193 108.693H9v7.614h5.193a3.807 3.807 0 0 0 0-7.614M53.46 108.693h-4.653a3.807 3.807 0 1 0 0 7.614H54v-7.614zM58.5 108.693H54v7.614h9v-7.614zM68.193 108.693H63v7.614h5.193a3.807 3.807 0 0 0 0-7.614M89.46 108.693h-4.653a3.807 3.807 0 1 0 0 7.614H90v-7.614zM94.5 108.693H90v7.614h9v-7.614zM104.193 108.693H99v7.614h5.193a3.807 3.807 0 0 0 0-7.614M121.5 108.693a3.807 3.807 0 1 1 0 7.614 3.807 3.807 0 0 1 0-7.614M157.5 108.693a3.807 3.807 0 1 1 0 7.614 3.807 3.807 0 0 1 0-7.614M175.5 108.693a3.807 3.807 0 1 1 0 7.614 3.807 3.807 0 0 1 0-7.614M202.5 108.693a3.807 3.807 0 1 1 0 7.614 3.807 3.807 0 0 1 0-7.614M251.46 108.693h-4.653a3.807 3.807 0 1 0 0 7.614H252v-7.614zM257.193 108.693H252v7.614h5.193a3.807 3.807 0 0 0 0-7.614M278.46 108.693h-4.653a3.807 3.807 0 1 0 0 7.614H279v-7.614zM284.193 108.693H279v7.614h5.193a3.807 3.807 0 0 0 0-7.614M301.5 108.693a3.807 3.807 0 1 1 0 7.614 3.807 3.807 0 0 1 0-7.614M323.46 108.693h-4.653a3.807 3.807 0 1 0 0 7.614H324v-7.614zM329.193 108.693H324v7.614h5.193a3.807 3.807 0 0 0 0-7.614M40.5 117.693a3.807 3.807 0 1 1 0 7.614 3.807 3.807 0 0 1 0-7.614M67.5 117.693a3.807 3.807 0 1 1 0 7.614 3.807 3.807 0 0 1 0-7.614M107.46 117.693h-4.653a3.807 3.807 0 1 0 0 7.614H108v-7.614zM113.193 117.693H108v7.614h5.193a3.807 3.807 0 0 0 0-7.614M148.5 117.693a3.807 3.807 0 1 1 0 7.614 3.807 3.807 0 0 1 0-7.614M184.5 117.693a3.807 3.807 0 1 1 0 7.614 3.807 3.807 0 0 1 0-7.614M211.5 117.693a3.807 3.807 0 1 1 0 7.614 3.807 3.807 0 0 1 0-7.614M247.5 117.693a3.807 3.807 0 1 1 0 7.614 3.807 3.807 0 0 1 0-7.614M265.5 117.693a3.807 3.807 0 1 1 0 7.614 3.807 3.807 0 0 1 0-7.614M292.5 117.693a3.807 3.807 0 1 1 0 7.614 3.807 3.807 0 0 1 0-7.614M310.5 117.693a3.807 3.807 0 1 1 0 7.614 3.807 3.807 0 0 1 0-7.614M4.5 126.693a3.807 3.807 0 1 1 0 7.614 3.807 3.807 0 0 1 0-7.614M22.5 126.693a3.807 3.807 0 1 1 0 7.614 3.807 3.807 0 0 1 0-7.614M44.46 126.693h-4.653a3.807 3.807 0 1 0 0 7.614H45v-7.614zM49.5 126.693H45v7.614h9v-7.614zM58.5 126.693H54v7.614h9v-7.614zM67.5 126.693H63v7.614h9v-7.614zM76.5 126.693H72v7.614h9v-7.614zM85.5 126.693H81v7.614h9v-7.614zM95.193 126.693H90v7.614h5.193a3.807 3.807 0 0 0 0-7.614M112.5 126.693a3.807 3.807 0 1 1 0 7.614 3.807 3.807 0 0 1 0-7.614M134.46 126.693h-4.653a3.807 3.807 0 1 0 0 7.614H135v-7.614zM139.5 126.693H135v7.614h9v-7.614zM149.193 126.693H144v7.614h5.193a3.807 3.807 0 0 0 0-7.614M170.46 126.693h-4.653a3.807 3.807 0 1 0 0 7.614H171v-7.614zM176.193 126.693H171v7.614h5.193a3.807 3.807 0 0 0 0-7.614M206.46 126.693h-4.653a3.807 3.807 0 1 0 0 7.614H207v-7.614zM211.5 126.693H207v7.614h9v-7.614zM221.193 126.693H216v7.614h5.193a3.807 3.807 0 0 0 0-7.614M242.46 126.693h-4.653a3.807 3.807 0 1 0 0 7.614H243v-7.614zM248.193 126.693H243v7.614h5.193a3.807 3.807 0 0 0 0-7.614M265.5 126.693a3.807 3.807 0 1 1 0 7.614 3.807 3.807 0 0 1 0-7.614M287.46 126.693h-4.653a3.807 3.807 0 1 0 0 7.614H288v-7.614zM292.5 126.693H288v7.614h9v-7.614zM301.5 126.693H297v7.614h9v-7.614zM311.193 126.693H306v7.614h5.193a3.807 3.807 0 0 0 0-7.614M328.5 126.693a3.807 3.807 0 1 1 0 7.614 3.807 3.807 0 0 1 0-7.614M8.46 135.693H3.807a3.807 3.807 0 1 0 0 7.614H9v-7.614zM13.5 135.693H9v7.614h9v-7.614zM23.193 135.693H18v7.614h5.193a3.807 3.807 0 0 0 0-7.614M40.5 135.693a3.807 3.807 0 1 1 0 7.614 3.807 3.807 0 0 1 0-7.614M112.5 135.693a3.807 3.807 0 1 1 0 7.614 3.807 3.807 0 0 1 0-7.614M157.5 135.693a3.807 3.807 0 1 1 0 7.614 3.807 3.807 0 0 1 0-7.614M175.5 135.693a3.807 3.807 0 1 1 0 7.614 3.807 3.807 0 0 1 0-7.614M287.46 135.693h-4.653a3.807 3.807 0 1 0 0 7.614H288v-7.614zM292.5 135.693H288v7.614h9v-7.614zM301.5 135.693H297v7.614h9v-7.614zM310.5 135.693H306v7.614h9v-7.614zM320.193 135.693H315v7.614h5.193a3.807 3.807 0 0 0 0-7.614M26.46 144.693h-4.653a3.807 3.807 0 1 0 0 7.614H27v-7.614zM32.193 144.693H27v7.614h5.193a3.807 3.807 0 0 0 0-7.614M53.46 144.693h-4.653a3.807 3.807 0 1 0 0 7.614H54v-7.614zM58.5 144.693H54v7.614h9v-7.614zM68.193 144.693H63v7.614h5.193a3.807 3.807 0 0 0 0-7.614M94.5 144.693a3.807 3.807 0 1 1 0 7.614 3.807 3.807 0 0 1 0-7.614M125.46 144.693h-4.653a3.807 3.807 0 1 0 0 7.614H126v-7.614zM131.193 144.693H126v7.614h5.193a3.807 3.807 0 0 0 0-7.614M152.46 144.693h-4.653a3.807 3.807 0 1 0 0 7.614H153v-7.614zM157.5 144.693H153v7.614h9v-7.614zM166.5 144.693H162v7.614h9v-7.614zM175.5 144.693H171v7.614h9v-7.614zM185.193 144.693H180v7.614h5.193a3.807 3.807 0 0 0 0-7.614M202.5 144.693a3.807 3.807 0 1 1 0 7.614 3.807 3.807 0 0 1 0-7.614M224.46 144.693h-4.653a3.807 3.807 0 1 0 0 7.614H225v-7.614zM230.193 144.693H225v7.614h5.193a3.807 3.807 0 0 0 0-7.614M247.5 144.693a3.807 3.807 0 1 1 0 7.614 3.807 3.807 0 0 1 0-7.614M274.5 144.693a3.807 3.807 0 1 1 0 7.614 3.807 3.807 0 0 1 0-7.614M310.5 144.693a3.807 3.807 0 1 1 0 7.614 3.807 3.807 0 0 1 0-7.614M328.5 144.693a3.807 3.807 0 1 1 0 7.614 3.807 3.807 0 0 1 0-7.614M4.5 153.693a3.807 3.807 0 1 1 0 7.614 3.807 3.807 0 0 1 0-7.614M22.5 153.693a3.807 3.807 0 1 1 0 7.614 3.807 3.807 0 0 1 0-7.614M49.5 153.693a3.807 3.807 0 1 1 0 7.614 3.807 3.807 0 0 1 0-7.614M80.46 153.693h-4.653a3.807 3.807 0 1 0 0 7.614H81v-7.614zM85.5 153.693H81v7.614h9v-7.614zM94.5 153.693H90v7.614h9v-7.614zM103.5 153.693H99v7.614h9v-7.614zM113.193 153.693H108v7.614h5.193a3.807 3.807 0 0 0 0-7.614M130.5 153.693a3.807 3.807 0 1 1 0 7.614 3.807 3.807 0 0 1 0-7.614M161.46 153.693h-4.653a3.807 3.807 0 1 0 0 7.614H162v-7.614zM167.193 153.693H162v7.614h5.193a3.807 3.807 0 0 0 0-7.614M188.46 153.693h-4.653a3.807 3.807 0 1 0 0 7.614H189v-7.614zM194.193 153.693H189v7.614h5.193a3.807 3.807 0 0 0 0-7.614M211.5 153.693a3.807 3.807 0 1 1 0 7.614 3.807 3.807 0 0 1 0-7.614M229.5 153.693a3.807 3.807 0 1 1 0 7.614 3.807 3.807 0 0 1 0-7.614M247.5 153.693a3.807 3.807 0 1 1 0 7.614 3.807 3.807 0 0 1 0-7.614M265.5 153.693a3.807 3.807 0 1 1 0 7.614 3.807 3.807 0 0 1 0-7.614M283.5 153.693a3.807 3.807 0 1 1 0 7.614 3.807 3.807 0 0 1 0-7.614M301.5 153.693a3.807 3.807 0 1 1 0 7.614 3.807 3.807 0 0 1 0-7.614M319.5 153.693a3.807 3.807 0 1 1 0 7.614 3.807 3.807 0 0 1 0-7.614M31.5 162.693a3.807 3.807 0 1 1 0 7.614 3.807 3.807 0 0 1 0-7.614M53.46 162.693h-4.653a3.807 3.807 0 1 0 0 7.614H54v-7.614zM58.5 162.693H54v7.614h9v-7.614zM67.5 162.693H63v7.614h9v-7.614zM77.193 162.693H72v7.614h5.193a3.807 3.807 0 0 0 0-7.614M112.5 162.693a3.807 3.807 0 1 1 0 7.614 3.807 3.807 0 0 1 0-7.614M143.46 162.693h-4.653a3.807 3.807 0 1 0 0 7.614H144v-7.614zM148.5 162.693H144v7.614h9v-7.614zM157.5 162.693H153v7.614h9v-7.614zM167.193 162.693H162v7.614h5.193a3.807 3.807 0 0 0 0-7.614M184.5 162.693a3.807 3.807 0 1 1 0 7.614 3.807 3.807 0 0 1 0-7.614M242.46 162.693h-4.653a3.807 3.807 0 1 0 0 7.614H243v-7.614zM247.5 162.693H243v7.614h9v-7.614zM256.5 162.693H252v7.614h9v-7.614zM266.193 162.693H261v7.614h5.193a3.807 3.807 0 0 0 0-7.614M296.46 162.693h-4.653a3.807 3.807 0 1 0 0 7.614H297v-7.614zM302.193 162.693H297v7.614h5.193a3.807 3.807 0 0 0 0-7.614M328.5 162.693a3.807 3.807 0 1 1 0 7.614 3.807 3.807 0 0 1 0-7.614M4.5 171.693a3.807 3.807 0 1 1 0 7.614 3.807 3.807 0 0 1 0-7.614M22.5 171.693a3.807 3.807 0 1 1 0 7.614 3.807 3.807 0 0 1 0-7.614M107.46 171.693h-4.653a3.807 3.807 0 1 0 0 7.614H108v-7.614zM112.5 171.693H108v7.614h9v-7.614zM121.5 171.693H117v7.614h9v-7.614zM130.5 171.693H126v7.614h9v-7.614zM140.193 171.693H135v7.614h5.193a3.807 3.807 0 0 0 0-7.614M188.46 171.693h-4.653a3.807 3.807 0 1 0 0 7.614H189v-7.614zM193.5 171.693H189v7.614h9v-7.614zM202.5 171.693H198v7.614h9v-7.614zM211.5 171.693H207v7.614h9v-7.614zM220.5 171.693H216v7.614h9v-7.614zM230.193 171.693H225v7.614h5.193a3.807 3.807 0 0 0 0-7.614M251.46 171.693h-4.653a3.807 3.807 0 1 0 0 7.614H252v-7.614zM256.5 171.693H252v7.614h9v-7.614zM265.5 171.693H261v7.614h9v-7.614zM274.5 171.693H270v7.614h9v-7.614zM284.193 171.693H279v7.614h5.193a3.807 3.807 0 0 0 0-7.614M301.5 171.693a3.807 3.807 0 1 1 0 7.614 3.807 3.807 0 0 1 0-7.614M328.5 171.693a3.807 3.807 0 1 1 0 7.614 3.807 3.807 0 0 1 0-7.614M4.5 180.693a3.807 3.807 0 1 1 0 7.614 3.807 3.807 0 0 1 0-7.614M40.5 180.693a3.807 3.807 0 1 1 0 7.614 3.807 3.807 0 0 1 0-7.614M58.5 180.693a3.807 3.807 0 1 1 0 7.614 3.807 3.807 0 0 1 0-7.614M89.46 180.693h-4.653a3.807 3.807 0 1 0 0 7.614H90v-7.614zM94.5 180.693H90v7.614h9v-7.614zM103.5 180.693H99v7.614h9v-7.614zM113.193 180.693H108v7.614h5.193a3.807 3.807 0 0 0 0-7.614M130.5 180.693a3.807 3.807 0 1 1 0 7.614 3.807 3.807 0 0 1 0-7.614M148.5 180.693a3.807 3.807 0 1 1 0 7.614 3.807 3.807 0 0 1 0-7.614M166.5 180.693a3.807 3.807 0 1 1 0 7.614 3.807 3.807 0 0 1 0-7.614M188.46 180.693h-4.653a3.807 3.807 0 1 0 0 7.614H189v-7.614zM194.193 180.693H189v7.614h5.193a3.807 3.807 0 0 0 0-7.614M238.5 180.693a3.807 3.807 0 1 1 0 7.614 3.807 3.807 0 0 1 0-7.614M260.46 180.693h-4.653a3.807 3.807 0 1 0 0 7.614H261v-7.614zM265.5 180.693H261v7.614h9v-7.614zM275.193 180.693H270v7.614h5.193a3.807 3.807 0 0 0 0-7.614M292.5 180.693a3.807 3.807 0 1 1 0 7.614 3.807 3.807 0 0 1 0-7.614M319.5 180.693a3.807 3.807 0 1 1 0 7.614 3.807 3.807 0 0 1 0-7.614M4.5 189.693a3.807 3.807 0 1 1 0 7.614 3.807 3.807 0 0 1 0-7.614M35.46 189.693h-4.653a3.807 3.807 0 1 0 0 7.614H36v-7.614zM41.193 189.693H36v7.614h5.193a3.807 3.807 0 0 0 0-7.614M71.46 189.693h-4.653a3.807 3.807 0 1 0 0 7.614H72v-7.614zM76.5 189.693H72v7.614h9v-7.614zM86.193 189.693H81v7.614h5.193a3.807 3.807 0 0 0 0-7.614M143.46 189.693h-4.653a3.807 3.807 0 1 0 0 7.614H144v-7.614zM148.5 189.693H144v7.614h9v-7.614zM158.193 189.693H153v7.614h5.193a3.807 3.807 0 0 0 0-7.614M184.5 189.693a3.807 3.807 0 1 1 0 7.614 3.807 3.807 0 0 1 0-7.614M206.46 189.693h-4.653a3.807 3.807 0 1 0 0 7.614H207v-7.614zM212.193 189.693H207v7.614h5.193a3.807 3.807 0 0 0 0-7.614M242.46 189.693h-4.653a3.807 3.807 0 1 0 0 7.614H243v-7.614zM247.5 189.693H243v7.614h9v-7.614zM257.193 189.693H252v7.614h5.193a3.807 3.807 0 0 0 0-7.614M287.46 189.693h-4.653a3.807 3.807 0 1 0 0 7.614H288v-7.614zM293.193 189.693H288v7.614h5.193a3.807 3.807 0 0 0 0-7.614M310.5 189.693a3.807 3.807 0 1 1 0 7.614 3.807 3.807 0 0 1 0-7.614M328.5 189.693a3.807 3.807 0 1 1 0 7.614 3.807 3.807 0 0 1 0-7.614M4.5 198.693a3.807 3.807 0 1 1 0 7.614 3.807 3.807 0 0 1 0-7.614M31.5 198.693a3.807 3.807 0 1 1 0 7.614 3.807 3.807 0 0 1 0-7.614M62.46 198.693h-4.653a3.807 3.807 0 1 0 0 7.614H63v-7.614zM67.5 198.693H63v7.614h9v-7.614zM76.5 198.693H72v7.614h9v-7.614zM85.5 198.693H81v7.614h9v-7.614zM95.193 198.693H90v7.614h5.193a3.807 3.807 0 0 0 0-7.614M139.5 198.693a3.807 3.807 0 1 1 0 7.614 3.807 3.807 0 0 1 0-7.614M188.46 198.693h-4.653a3.807 3.807 0 1 0 0 7.614H189v-7.614zM193.5 198.693H189v7.614h9v-7.614zM202.5 198.693H198v7.614h9v-7.614zM211.5 198.693H207v7.614h9v-7.614zM220.5 198.693H216v7.614h9v-7.614zM229.5 198.693H225v7.614h9v-7.614zM238.5 198.693H234v7.614h9v-7.614zM248.193 198.693H243v7.614h5.193a3.807 3.807 0 0 0 0-7.614M274.5 198.693a3.807 3.807 0 1 1 0 7.614 3.807 3.807 0 0 1 0-7.614M296.46 198.693h-4.653a3.807 3.807 0 1 0 0 7.614H297v-7.614zM301.5 198.693H297v7.614h9v-7.614zM311.193 198.693H306v7.614h5.193a3.807 3.807 0 0 0 0-7.614M328.5 198.693a3.807 3.807 0 1 1 0 7.614 3.807 3.807 0 0 1 0-7.614M8.46 207.693H3.807a3.807 3.807 0 1 0 0 7.614H9v-7.614zM14.193 207.693H9v7.614h5.193a3.807 3.807 0 0 0 0-7.614M35.46 207.693h-4.653a3.807 3.807 0 1 0 0 7.614H36v-7.614zM40.5 207.693H36v7.614h9v-7.614zM50.193 207.693H45v7.614h5.193a3.807 3.807 0 0 0 0-7.614M94.5 207.693a3.807 3.807 0 1 1 0 7.614 3.807 3.807 0 0 1 0-7.614M125.46 207.693h-4.653a3.807 3.807 0 1 0 0 7.614H126v-7.614zM131.193 207.693H126v7.614h5.193a3.807 3.807 0 0 0 0-7.614M175.5 207.693a3.807 3.807 0 1 1 0 7.614 3.807 3.807 0 0 1 0-7.614M197.46 207.693h-4.653a3.807 3.807 0 1 0 0 7.614H198v-7.614zM203.193 207.693H198v7.614h5.193a3.807 3.807 0 0 0 0-7.614M242.46 207.693h-4.653a3.807 3.807 0 1 0 0 7.614H243v-7.614zM247.5 207.693H243v7.614h9v-7.614zM257.193 207.693H252v7.614h5.193a3.807 3.807 0 0 0 0-7.614M278.46 207.693h-4.653a3.807 3.807 0 1 0 0 7.614H279v-7.614zM284.193 207.693H279v7.614h5.193a3.807 3.807 0 0 0 0-7.614M305.46 207.693h-4.653a3.807 3.807 0 1 0 0 7.614H306v-7.614zM311.193 207.693H306v7.614h5.193a3.807 3.807 0 0 0 0-7.614M4.5 216.693a3.807 3.807 0 1 1 0 7.614 3.807 3.807 0 0 1 0-7.614M26.46 216.693h-4.653a3.807 3.807 0 1 0 0 7.614H27v-7.614zM32.193 216.693H27v7.614h5.193a3.807 3.807 0 0 0 0-7.614M53.46 216.693h-4.653a3.807 3.807 0 1 0 0 7.614H54v-7.614zM59.193 216.693H54v7.614h5.193a3.807 3.807 0 0 0 0-7.614M94.5 216.693a3.807 3.807 0 1 1 0 7.614 3.807 3.807 0 0 1 0-7.614M143.46 216.693h-4.653a3.807 3.807 0 1 0 0 7.614H144v-7.614zM149.193 216.693H144v7.614h5.193a3.807 3.807 0 0 0 0-7.614M179.46 216.693h-4.653a3.807 3.807 0 1 0 0 7.614H180v-7.614zM184.5 216.693H180v7.614h9v-7.614zM194.193 216.693H189v7.614h5.193a3.807 3.807 0 0 0 0-7.614M220.5 216.693a3.807 3.807 0 1 1 0 7.614 3.807 3.807 0 0 1 0-7.614M256.5 216.693a3.807 3.807 0 1 1 0 7.614 3.807 3.807 0 0 1 0-7.614M278.46 216.693h-4.653a3.807 3.807 0 1 0 0 7.614H279v-7.614zM284.193 216.693H279v7.614h5.193a3.807 3.807 0 0 0 0-7.614M301.5 216.693a3.807 3.807 0 1 1 0 7.614 3.807 3.807 0 0 1 0-7.614M4.5 225.693a3.807 3.807 0 1 1 0 7.614 3.807 3.807 0 0 1 0-7.614M71.46 225.693h-4.653a3.807 3.807 0 1 0 0 7.614H72v-7.614zM76.5 225.693H72v7.614h9v-7.614zM85.5 225.693H81v7.614h9v-7.614zM94.5 225.693H90v7.614h9v-7.614zM103.5 225.693H99v7.614h9v-7.614zM112.5 225.693H108v7.614h9v-7.614zM121.5 225.693H117v7.614h9v-7.614zM130.5 225.693H126v7.614h9v-7.614zM139.5 225.693H135v7.614h9v-7.614zM149.193 225.693H144v7.614h5.193a3.807 3.807 0 0 0 0-7.614M175.5 225.693a3.807 3.807 0 1 1 0 7.614 3.807 3.807 0 0 1 0-7.614M197.46 225.693h-4.653a3.807 3.807 0 1 0 0 7.614H198v-7.614zM203.193 225.693H198v7.614h5.193a3.807 3.807 0 0 0 0-7.614M224.46 225.693h-4.653a3.807 3.807 0 1 0 0 7.614H225v-7.614zM229.5 225.693H225v7.614h9v-7.614zM238.5 225.693H234v7.614h9v-7.614zM247.5 225.693H243v7.614h9v-7.614zM257.193 225.693H252v7.614h5.193a3.807 3.807 0 0 0 0-7.614M292.5 225.693a3.807 3.807 0 1 1 0 7.614 3.807 3.807 0 0 1 0-7.614M314.46 225.693h-4.653a3.807 3.807 0 1 0 0 7.614H315v-7.614zM320.193 225.693H315v7.614h5.193a3.807 3.807 0 0 0 0-7.614M8.46 234.693H3.807a3.807 3.807 0 1 0 0 7.614H9v-7.614zM14.193 234.693H9v7.614h5.193a3.807 3.807 0 0 0 0-7.614M35.46 234.693h-4.653a3.807 3.807 0 1 0 0 7.614H36v-7.614zM41.193 234.693H36v7.614h5.193a3.807 3.807 0 0 0 0-7.614M58.5 234.693a3.807 3.807 0 1 1 0 7.614 3.807 3.807 0 0 1 0-7.614M80.46 234.693h-4.653a3.807 3.807 0 1 0 0 7.614H81v-7.614zM86.193 234.693H81v7.614h5.193a3.807 3.807 0 0 0 0-7.614M134.46 234.693h-4.653a3.807 3.807 0 1 0 0 7.614H135v-7.614zM140.193 234.693H135v7.614h5.193a3.807 3.807 0 0 0 0-7.614M166.5 234.693a3.807 3.807 0 1 1 0 7.614 3.807 3.807 0 0 1 0-7.614M184.5 234.693a3.807 3.807 0 1 1 0 7.614 3.807 3.807 0 0 1 0-7.614M220.5 234.693a3.807 3.807 0 1 1 0 7.614 3.807 3.807 0 0 1 0-7.614M242.46 234.693h-4.653a3.807 3.807 0 1 0 0 7.614H243v-7.614zM247.5 234.693H243v7.614h9v-7.614zM257.193 234.693H252v7.614h5.193a3.807 3.807 0 0 0 0-7.614M278.46 234.693h-4.653a3.807 3.807 0 1 0 0 7.614H279v-7.614zM283.5 234.693H279v7.614h9v-7.614zM293.193 234.693H288v7.614h5.193a3.807 3.807 0 0 0 0-7.614M314.46 234.693h-4.653a3.807 3.807 0 1 0 0 7.614H315v-7.614zM319.5 234.693H315v7.614h9v-7.614zM329.193 234.693H324v7.614h5.193a3.807 3.807 0 0 0 0-7.614M4.5 243.693a3.807 3.807 0 1 1 0 7.614 3.807 3.807 0 0 1 0-7.614M94.5 243.693a3.807 3.807 0 1 1 0 7.614 3.807 3.807 0 0 1 0-7.614M116.46 243.693h-4.653a3.807 3.807 0 1 0 0 7.614H117v-7.614zM122.193 243.693H117v7.614h5.193a3.807 3.807 0 0 0 0-7.614M157.5 243.693a3.807 3.807 0 1 1 0 7.614 3.807 3.807 0 0 1 0-7.614M179.46 243.693h-4.653a3.807 3.807 0 1 0 0 7.614H180v-7.614zM185.193 243.693H180v7.614h5.193a3.807 3.807 0 0 0 0-7.614M220.5 243.693a3.807 3.807 0 1 1 0 7.614 3.807 3.807 0 0 1 0-7.614M247.5 243.693a3.807 3.807 0 1 1 0 7.614 3.807 3.807 0 0 1 0-7.614M265.5 243.693a3.807 3.807 0 1 1 0 7.614 3.807 3.807 0 0 1 0-7.614M296.46 243.693h-4.653a3.807 3.807 0 1 0 0 7.614H297v-7.614zM301.5 243.693H297v7.614h9v-7.614zM310.5 243.693H306v7.614h9v-7.614zM320.193 243.693H315v7.614h5.193a3.807 3.807 0 0 0 0-7.614M4.5 252.693a3.807 3.807 0 1 1 0 7.614 3.807 3.807 0 0 1 0-7.614M26.46 252.693h-4.653a3.807 3.807 0 1 0 0 7.614H27v-7.614zM32.193 252.693H27v7.614h5.193a3.807 3.807 0 0 0 0-7.614M62.46 252.693h-4.653a3.807 3.807 0 1 0 0 7.614H63v-7.614zM67.5 252.693H63v7.614h9v-7.614zM77.193 252.693H72v7.614h5.193a3.807 3.807 0 0 0 0-7.614M98.46 252.693h-4.653a3.807 3.807 0 1 0 0 7.614H99v-7.614zM103.5 252.693H99v7.614h9v-7.614zM112.5 252.693H108v7.614h9v-7.614zM121.5 252.693H117v7.614h9v-7.614zM131.193 252.693H126v7.614h5.193a3.807 3.807 0 0 0 0-7.614M161.46 252.693h-4.653a3.807 3.807 0 1 0 0 7.614H162v-7.614zM167.193 252.693H162v7.614h5.193a3.807 3.807 0 0 0 0-7.614M193.5 252.693a3.807 3.807 0 1 1 0 7.614 3.807 3.807 0 0 1 0-7.614M229.5 252.693a3.807 3.807 0 1 1 0 7.614 3.807 3.807 0 0 1 0-7.614M260.46 252.693h-4.653a3.807 3.807 0 1 0 0 7.614H261v-7.614zM265.5 252.693H261v7.614h9v-7.614zM274.5 252.693H270v7.614h9v-7.614zM283.5 252.693H279v7.614h9v-7.614zM293.193 252.693H288v7.614h5.193a3.807 3.807 0 0 0 0-7.614M310.5 252.693a3.807 3.807 0 1 1 0 7.614 3.807 3.807 0 0 1 0-7.614M76.5 261.693a3.807 3.807 0 1 1 0 7.614 3.807 3.807 0 0 1 0-7.614M121.5 261.693a3.807 3.807 0 1 1 0 7.614 3.807 3.807 0 0 1 0-7.614M143.46 261.693h-4.653a3.807 3.807 0 1 0 0 7.614H144v-7.614zM149.193 261.693H144v7.614h5.193a3.807 3.807 0 0 0 0-7.614M211.5 261.693a3.807 3.807 0 1 1 0 7.614 3.807 3.807 0 0 1 0-7.614M233.46 261.693h-4.653a3.807 3.807 0 1 0 0 7.614H234v-7.614zM239.193 261.693H234v7.614h5.193a3.807 3.807 0 0 0 0-7.614M256.5 261.693a3.807 3.807 0 1 1 0 7.614 3.807 3.807 0 0 1 0-7.614M296.46 261.693h-4.653a3.807 3.807 0 1 0 0 7.614H297v-7.614zM301.5 261.693H297v7.614h9v-7.614zM311.193 261.693H306v7.614h5.193a3.807 3.807 0 0 0 0-7.614M76.5 270.693a3.807 3.807 0 1 1 0 7.614 3.807 3.807 0 0 1 0-7.614M98.46 270.693h-4.653a3.807 3.807 0 1 0 0 7.614H99v-7.614zM104.193 270.693H99v7.614h5.193a3.807 3.807 0 0 0 0-7.614M121.5 270.693a3.807 3.807 0 1 1 0 7.614 3.807 3.807 0 0 1 0-7.614M139.5 270.693a3.807 3.807 0 1 1 0 7.614 3.807 3.807 0 0 1 0-7.614M161.46 270.693h-4.653a3.807 3.807 0 1 0 0 7.614H162v-7.614zM167.193 270.693H162v7.614h5.193a3.807 3.807 0 0 0 0-7.614M211.5 270.693a3.807 3.807 0 1 1 0 7.614 3.807 3.807 0 0 1 0-7.614M229.5 270.693a3.807 3.807 0 1 1 0 7.614 3.807 3.807 0 0 1 0-7.614M256.5 270.693a3.807 3.807 0 1 1 0 7.614 3.807 3.807 0 0 1 0-7.614M274.5 270.693a3.807 3.807 0 1 1 0 7.614 3.807 3.807 0 0 1 0-7.614M296.46 270.693h-4.653a3.807 3.807 0 1 0 0 7.614H297v-7.614zM301.5 270.693H297v7.614h9v-7.614zM311.193 270.693H306v7.614h5.193a3.807 3.807 0 0 0 0-7.614M328.5 270.693a3.807 3.807 0 1 1 0 7.614 3.807 3.807 0 0 1 0-7.614M116.46 279.693h-4.653a3.807 3.807 0 1 0 0 7.614H117v-7.614zM121.5 279.693H117v7.614h9v-7.614zM130.5 279.693H126v7.614h9v-7.614zM139.5 279.693H135v7.614h9v-7.614zM148.5 279.693H144v7.614h9v-7.614zM157.5 279.693H153v7.614h9v-7.614zM167.193 279.693H162v7.614h5.193a3.807 3.807 0 0 0 0-7.614M193.5 279.693a3.807 3.807 0 1 1 0 7.614 3.807 3.807 0 0 1 0-7.614M224.46 279.693h-4.653a3.807 3.807 0 1 0 0 7.614H225v-7.614zM230.193 279.693H225v7.614h5.193a3.807 3.807 0 0 0 0-7.614M251.46 279.693h-4.653a3.807 3.807 0 1 0 0 7.614H252v-7.614zM257.193 279.693H252v7.614h5.193a3.807 3.807 0 0 0 0-7.614M296.46 279.693h-4.653a3.807 3.807 0 1 0 0 7.614H297v-7.614zM302.193 279.693H297v7.614h5.193a3.807 3.807 0 0 0 0-7.614M319.5 279.693a3.807 3.807 0 1 1 0 7.614 3.807 3.807 0 0 1 0-7.614M80.46 288.693h-4.653a3.807 3.807 0 1 0 0 7.614H81v-7.614zM85.5 288.693H81v7.614h9v-7.614zM94.5 288.693H90v7.614h9v-7.614zM104.193 288.693H99v7.614h5.193a3.807 3.807 0 0 0 0-7.614M166.5 288.693a3.807 3.807 0 1 1 0 7.614 3.807 3.807 0 0 1 0-7.614M215.46 288.693h-4.653a3.807 3.807 0 1 0 0 7.614H216v-7.614zM221.193 288.693H216v7.614h5.193a3.807 3.807 0 0 0 0-7.614M251.46 288.693h-4.653a3.807 3.807 0 1 0 0 7.614H252v-7.614zM256.5 288.693H252v7.614h9v-7.614zM265.5 288.693H261v7.614h9v-7.614zM274.5 288.693H270v7.614h9v-7.614zM283.5 288.693H279v7.614h9v-7.614zM293.193 288.693H288v7.614h5.193a3.807 3.807 0 0 0 0-7.614M323.46 288.693h-4.653a3.807 3.807 0 1 0 0 7.614H324v-7.614zM329.193 288.693H324v7.614h5.193a3.807 3.807 0 0 0 0-7.614M76.5 297.693a3.807 3.807 0 1 1 0 7.614 3.807 3.807 0 0 1 0-7.614M94.5 297.693a3.807 3.807 0 1 1 0 7.614 3.807 3.807 0 0 1 0-7.614M116.46 297.693h-4.653a3.807 3.807 0 1 0 0 7.614H117v-7.614zM121.5 297.693H117v7.614h9v-7.614zM130.5 297.693H126v7.614h9v-7.614zM140.193 297.693H135v7.614h5.193a3.807 3.807 0 0 0 0-7.614M184.5 297.693a3.807 3.807 0 1 1 0 7.614 3.807 3.807 0 0 1 0-7.614M206.46 297.693h-4.653a3.807 3.807 0 1 0 0 7.614H207v-7.614zM212.193 297.693H207v7.614h5.193a3.807 3.807 0 0 0 0-7.614M238.5 297.693a3.807 3.807 0 1 1 0 7.614 3.807 3.807 0 0 1 0-7.614M256.5 297.693a3.807 3.807 0 1 1 0 7.614 3.807 3.807 0 0 1 0-7.614M274.5 297.693a3.807 3.807 0 1 1 0 7.614 3.807 3.807 0 0 1 0-7.614M112.5 306.693a3.807 3.807 0 1 1 0 7.614 3.807 3.807 0 0 1 0-7.614M152.46 306.693h-4.653a3.807 3.807 0 1 0 0 7.614H153v-7.614zM158.193 306.693H153v7.614h5.193a3.807 3.807 0 0 0 0-7.614M175.5 306.693a3.807 3.807 0 1 1 0 7.614 3.807 3.807 0 0 1 0-7.614M206.46 306.693h-4.653a3.807 3.807 0 1 0 0 7.614H207v-7.614zM212.193 306.693H207v7.614h5.193a3.807 3.807 0 0 0 0-7.614M238.5 306.693a3.807 3.807 0 1 1 0 7.614 3.807 3.807 0 0 1 0-7.614M256.5 306.693a3.807 3.807 0 1 1 0 7.614 3.807 3.807 0 0 1 0-7.614M287.46 306.693h-4.653a3.807 3.807 0 1 0 0 7.614H288v-7.614zM292.5 306.693H288v7.614h9v-7.614zM302.193 306.693H297v7.614h5.193a3.807 3.807 0 0 0 0-7.614M323.46 306.693h-4.653a3.807 3.807 0 1 0 0 7.614H324v-7.614zM329.193 306.693H324v7.614h5.193a3.807 3.807 0 0 0 0-7.614M85.5 315.693a3.807 3.807 0 1 1 0 7.614 3.807 3.807 0 0 1 0-7.614M125.46 315.693h-4.653a3.807 3.807 0 1 0 0 7.614H126v-7.614zM131.193 315.693H126v7.614h5.193a3.807 3.807 0 0 0 0-7.614M148.5 315.693a3.807 3.807 0 1 1 0 7.614 3.807 3.807 0 0 1 0-7.614M170.46 315.693h-4.653a3.807 3.807 0 1 0 0 7.614H171v-7.614zM175.5 315.693H171v7.614h9v-7.614zM185.193 315.693H180v7.614h5.193a3.807 3.807 0 0 0 0-7.614M220.5 315.693a3.807 3.807 0 1 1 0 7.614 3.807 3.807 0 0 1 0-7.614M238.5 315.693a3.807 3.807 0 1 1 0 7.614 3.807 3.807 0 0 1 0-7.614M278.46 315.693h-4.653a3.807 3.807 0 1 0 0 7.614H279v-7.614zM283.5 315.693H279v7.614h9v-7.614zM292.5 315.693H288v7.614h9v-7.614zM301.5 315.693H297v7.614h9v-7.614zM310.5 315.693H306v7.614h9v-7.614zM319.5 315.693H315v7.614h9v-7.614zM329.193 315.693H324v7.614h5.193a3.807 3.807 0 0 0 0-7.614M89.46 324.693h-4.653a3.807 3.807 0 1 0 0 7.614H90v-7.614zM95.193 324.693H90v7.614h5.193a3.807 3.807 0 0 0 0-7.614M112.5 324.693a3.807 3.807 0 1 1 0 7.614 3.807 3.807 0 0 1 0-7.614M134.46 324.693h-4.653a3.807 3.807 0 1 0 0 7.614H135v-7.614zM139.5 324.693H135v7.614h9v-7.614zM149.193 324.693H144v7.614h5.193a3.807 3.807 0 0 0 0-7.614M166.5 324.693a3.807 3.807 0 1 1 0 7.614 3.807 3.807 0 0 1 0-7.614M193.5 324.693a3.807 3.807 0 1 1 0 7.614 3.807 3.807 0 0 1 0-7.614M215.46 324.693h-4.653a3.807 3.807 0 1 0 0 7.614H216v-7.614zM221.193 324.693H216v7.614h5.193a3.807 3.807 0 0 0 0-7.614M251.46 324.693h-4.653a3.807 3.807 0 1 0 0 7.614H252v-7.614zM257.193 324.693H252v7.614h5.193a3.807 3.807 0 0 0 0-7.614M301.5 324.693a3.807 3.807 0 1 1 0 7.614 3.807 3.807 0 0 1 0-7.614M328.5 324.693a3.807 3.807 0 1 1 0 7.614 3.807 3.807 0 0 1 0-7.614"/>
        <g fill="#fff">
          <path fill="none" d="M41.491 9.455H21.51c-2.572 0-4.958.793-6.917 2.14a12 12 0 0 0-3.684 4.046 11.55 11.55 0 0 0-1.458 5.627v20.456c0 6.517 5.41 11.82 12.061 11.82l9.989.001 9.989-.003c6.652 0 12.061-5.302 12.061-11.818V21.268c0-6.514-5.41-11.813-12.059-11.813"/>
          <path d="M41.491.005H21.51C11.77.005 3.519 6.439.882 15.233A20.9 20.9 0 0 0 0 21.268v20.456c0 11.73 9.652 21.27 21.509 21.27l9.991.001 9.991-.003C53.348 62.992 63 53.454 63 41.724V21.268C63 9.543 53.348.005 41.491.005m12.059 41.72c0 6.516-5.41 11.818-12.061 11.818l-9.989.002-9.989-.003c-6.652 0-12.061-5.302-12.061-11.818V21.268c0-2.036.528-3.952 1.457-5.627a12 12 0 0 1 3.684-4.045 12.16 12.16 0 0 1 6.917-2.141h19.983c6.65 0 12.059 5.299 12.059 11.813z"/>
        </g>
        <g fill="#fff">
          <path fill="none" d="M311.491 9.455H291.51c-2.572 0-4.958.793-6.917 2.14a12 12 0 0 0-3.684 4.046 11.55 11.55 0 0 0-1.458 5.627v20.456c0 6.517 5.41 11.82 12.061 11.82l9.989.001 9.989-.003c6.652 0 12.061-5.302 12.061-11.818V21.268c0-6.514-5.41-11.813-12.059-11.813"/>
          <path d="M311.491.005H291.51c-9.739 0-17.99 6.434-20.627 15.228a20.9 20.9 0 0 0-.882 6.035v20.456c0 11.73 9.652 21.27 21.509 21.27l9.991.001 9.991-.003c11.857 0 21.509-9.538 21.509-21.268V21.268C333 9.543 323.348.005 311.491.005m12.059 41.72c0 6.516-5.41 11.818-12.061 11.818l-9.989.002-9.989-.003c-6.652 0-12.061-5.302-12.061-11.818V21.268c0-2.036.528-3.952 1.457-5.627a12 12 0 0 1 3.684-4.045 12.16 12.16 0 0 1 6.917-2.141h19.983c6.65 0 12.059 5.299 12.059 11.813z"/>
        </g>
        <g fill="#fff">
          <path fill="none" d="M41.491 279.455H21.51c-2.572 0-4.958.793-6.917 2.14a12 12 0 0 0-3.684 4.046 11.55 11.55 0 0 0-1.458 5.627v20.456c0 6.517 5.41 11.82 12.061 11.82l9.989.001 9.989-.003c6.652 0 12.061-5.302 12.061-11.818v-20.456c0-6.514-5.41-11.813-12.059-11.813"/>
          <path d="M41.491 270.005H21.51c-9.739 0-17.99 6.434-20.627 15.228A20.9 20.9 0 0 0 0 291.268v20.456c0 11.73 9.652 21.27 21.509 21.27l9.991.001 9.991-.003c11.857 0 21.509-9.538 21.509-21.268v-20.456c0-11.725-9.652-21.263-21.509-21.263m12.059 41.72c0 6.516-5.41 11.818-12.061 11.818l-9.989.002-9.989-.003c-6.652 0-12.061-5.302-12.061-11.818v-20.456c0-2.036.528-3.952 1.457-5.627a12 12 0 0 1 3.684-4.045 12.16 12.16 0 0 1 6.917-2.141h19.983c6.65 0 12.059 5.299 12.059 11.813z"/>
        </g>
        <g fill="#fff">
          <path d="M44.73 22.504c0 2.338-1.787 4.233-3.991 4.233H22.26c-2.204 0-3.991-1.895-3.991-4.233s1.787-4.234 3.99-4.234H40.74c2.204 0 3.991 1.896 3.991 4.234M44.73 40.496c0 2.339-1.787 4.234-3.991 4.234H22.26c-2.204 0-3.991-1.895-3.991-4.234s1.787-4.233 3.99-4.233H40.74c2.204 0 3.991 1.895 3.991 4.233M44.73 31.5c0 2.338-1.787 4.234-3.991 4.234H22.26c-2.204 0-3.991-1.896-3.991-4.234s1.787-4.234 3.99-4.234H40.74c2.204 0 3.991 1.896 3.991 4.234"/>
        </g>
        <g fill="#fff">
          <path d="M314.73 22.504c0 2.338-1.787 4.233-3.991 4.233H292.26c-2.204 0-3.991-1.895-3.991-4.233s1.787-4.234 3.99-4.234h18.479c2.204 0 3.991 1.896 3.991 4.234M314.73 40.496c0 2.339-1.787 4.234-3.991 4.234H292.26c-2.204 0-3.991-1.895-3.991-4.234s1.787-4.233 3.99-4.233h18.479c2.204 0 3.991 1.895 3.991 4.233M314.73 31.5c0 2.338-1.787 4.234-3.991 4.234H292.26c-2.204 0-3.991-1.896-3.991-4.234s1.787-4.234 3.99-4.234h18.479c2.204 0 3.991 1.896 3.991 4.234"/>
        </g>
        <g fill="#fff">
          <path d="M44.73 292.504c0 2.338-1.787 4.233-3.991 4.233H22.26c-2.204 0-3.991-1.895-3.991-4.233s1.787-4.234 3.99-4.234H40.74c2.204 0 3.991 1.896 3.991 4.234M44.73 310.496c0 2.339-1.787 4.234-3.991 4.234H22.26c-2.204 0-3.991-1.895-3.991-4.234s1.787-4.233 3.99-4.233H40.74c2.204 0 3.991 1.895 3.991 4.233M44.73 301.5c0 2.338-1.787 4.234-3.991 4.234H22.26c-2.204 0-3.991-1.896-3.991-4.234s1.787-4.234 3.99-4.234H40.74c2.204 0 3.991 1.896 3.991 4.234"/>
        </g>
      </mask>
    </defs>
  <path fill="url(#a)" d="M0 0h333v333H0z" mask="url(#b)" transform="translate(18 18)"/>
  <svg xmlns="http://www.w3.org/2000/svg" xmlns:svg="http://www.w3.org/2000/svg" transform="translate(135 135)scale(.099)" viewBox="0 0 1000 1000">
    <g transform="translate(0 -24)">
      <title/>
      <path fill="none" d="M-1-1h1026v1026H-1z"/>
    </g>
    <path fill="#fff" fill-rule="evenodd" d="M978.814 500c0 264.441-214.373 478.814-478.814 478.814S21.186 764.44 21.186 500 235.56 21.186 500 21.186 978.814 235.56 978.814 500"/>
    <g transform="translate(-91.101 -91.044)scale(1.152)">
      <title/>
      <path fill="#126567" d="M482 80.1c-103.6 7.7-198.1 50.3-272.3 122.8-97.6 95.2-144.4 230-127.1 365.4 21.6 169.3 141 310.3 305 360.2 126.8 38.6 267.9 15.7 375.4-60.8 132.1-94.1 200.8-250.2 180.4-410-21.6-169.3-141-310.3-305-360.2C589.6 82.6 532.7 76.3 482 80.1m255.5 166.5c4.7 2.2 7.2 7.3 5.9 12.1-.6 2.1-41 74.4-89.8 160.7l-88.8 157 2 4c1.1 2.3 26.6 49.1 56.7 104.1 57.1 104.4 57.6 105.3 54.4 111.1-2.8 5.4-3.2 5.4-51.6 5.4-50.2 0-49.1.1-56.3-7.4-4.5-4.5-119.4-215-118.8-217.4.7-2.5 177.5-316 180.8-320.4 1.5-2.1 3.9-4.7 5.4-5.9 5.9-4.7 7.6-4.8 53.4-4.9 37.2 0 43.9.2 46.7 1.6M402.8 356.7c7.4 3.5 11.3 9.4 40.1 59.8 28.1 49.1 28.4 49.7 26.9 52.3-.9 1.5-20.6 36.4-43.8 77.7-23.2 41.2-43.8 76.9-45.6 79.2-1.9 2.3-5.7 5.3-8.7 6.8l-5.3 2.6-44.6-.3-44.6-.3-2.6-2.4c-3.5-3.3-5.1-8.3-3.7-12.1.5-1.7 20.2-37 43.6-78.4l42.5-75.4-27.6-47.8c-31.2-54-31.1-53.9-25.1-59.9l3.5-3.5h45.7c41.2 0 46.1.2 49.3 1.7"/>
    </g>
  </svg>
</svg>
