<svg width="32" height="32" viewBox="0 0 32 32" fill="none" xmlns="http://www.w3.org/2000/svg">
  <circle cx="16" cy="16" r="15" fill="#0f172a" />
  
  <circle cx="16" cy="16" r="13" stroke="#38bdf8" stroke-width="1.2" stroke-opacity="0.8" />
  
  <path d="M14.5 16C14.5 17.3807 13.3807 18.5 12 18.5C10.6193 18.5 9.5 17.3807 9.5 16C9.5 14.6193 10.6193 13.5 12 13.5C13.3807 13.5 14.5 14.6193 14.5 16Z" fill="#64748b" />
  <path d="M12 11V9M12 23V21M17 16H19M5 16H7M15.5 12.5L17 11M8.5 19.5L7 21M15.5 19.5L17 21M8.5 12.5L7 11" stroke="#64748b" stroke-width="1.5" stroke-linecap="round" />

  <path d="M16 13L22 10L28 13V20L22 23L16 20V13Z" fill="#e2e8f0" stroke="#94a3b8" stroke-width="0.5" />
  <path d="M16 13L22 16M28 13L22 16M22 23V16" stroke="#94a3b8" stroke-width="0.5" />

  <path d="M21 13L19 17H23L21 21" stroke="#38bdf8" stroke-width="1.5" stroke-linecap="round" stroke-linejoin="round" />
</svg>
